<svg preserveAspectRatio="none" width="100%" height="100%" overflow="visible" style="display: block;" viewBox="0 0 46.1562 31.3014" fill="none" xmlns="http://www.w3.org/2000/svg">
<g id="Vector 10">
<path d="M9.92835 24.3473L9.64483 20.4698L5.30362 20.7855L9.21591 24.4032L9.92835 24.3473Z" fill="#FFE287"/>
<path d="M13.2779 19.1792L9.27996 15.4799L9.64483 20.4698L13.3063 20.2036L13.2921 19.6914L13.2779 19.1792Z" fill="#FFE287"/>
<path d="M9.92835 24.3473L13.4138 24.0736L13.3063 20.2036L9.64483 20.4698L9.92835 24.3473Z" fill="#F5C113"/>
<path d="M12.4896 13.2259L8.87214 9.90261L9.27996 15.4799L13.2779 19.1792L13.2797 19.1809L13.1499 13.8325L12.4896 13.2259Z" fill="#F4851F"/>
<path d="M16.1072 16.532V16.5493V21.7971L19.7511 19.8621L16.1072 16.532Z" fill="#F4851F"/>
<path d="M0 21.1711L3.99091 24.8134L9.21591 24.4032L5.30362 20.7855L0 21.1711Z" fill="#F58420"/>
<path d="M13.1499 13.8325L13.2797 19.1809L16.1072 21.7971V16.5493L13.1499 13.8325Z" fill="#FBB140"/>
<path d="M11.0374 31.2445L13.4138 28.285L9.21591 24.4032L3.99091 24.8134L11.0374 31.2445Z" fill="#FBB140"/>
<path d="M19.7511 9.4534L16.1072 5.4066V16.532L19.7511 19.8621V9.4534Z" fill="#84A5D5"/>
<path d="M26.5108 19.8621L29.9801 16.707L29.9908 5.69708L26.5108 9.39045V9.44732V14.6547V19.8621Z" fill="#84A5D5"/>
<path d="M19.7511 3.95687L16.1072 0V5.17895V5.4066L19.7511 9.4534V9.44732V3.95687Z" fill="#467FC1"/>
<path d="M27.4496 2.7444L26.5108 3.75616V9.20545V9.39045L29.9908 5.69708L29.9913 5.12204L29.9963 0L27.4496 2.7444Z" fill="#467FC1"/>
<path d="M25.6328 10.3222L23.0326 7.50452L23.0253 7.51233L20.4787 10.2567L23.0253 13.0897L25.6328 10.3222Z" fill="#61C5BC"/>
<path d="M26.5108 9.20545V3.75616L23.0326 7.50452L25.6328 10.3222L26.5108 9.39045V9.20545Z" fill="#A2D9DC"/>
<path d="M19.7511 9.44732L20.4787 10.2567L23.0253 7.51233L19.7511 3.95687V9.44732Z" fill="#A3DADB"/>
<path d="M29.9801 16.707L26.5108 19.8621L29.9963 21.7971L29.9948 16.6937L29.9801 16.707Z" fill="#87C442"/>
<path d="M32.9346 19.2049L36.9622 15.6518L37.3369 10.0164L33.2705 13.7146L32.9346 19.2049Z" fill="#87C340"/>
<path d="M35.2773 31.3014L42.4475 24.6996L39.8169 24.5318L37.1862 24.3639L32.9009 28.342L35.2773 31.3014Z" fill="#C7DC6A"/>
<path d="M32.9346 19.2049L33.2705 13.7146L29.9948 16.6937L29.9963 21.7971L32.9346 19.2049Z" fill="#C7DC6A"/>
<path d="M32.877 20.1467L36.6418 20.4694L36.9622 15.6518L32.9346 19.2049L32.877 20.1467Z" fill="#F8A98E"/>
<path d="M42.4475 24.6996L46.1563 21.2849L40.9808 20.8413L37.1862 24.3639L39.8169 24.5318L42.4475 24.6996Z" fill="#87C440"/>
<path d="M32.877 20.1467L32.6368 24.0736L34.0588 24.1643L36.3335 24.3095L36.6418 20.4694L32.877 20.1467Z" fill="#ED3744"/>
<path d="M40.9808 20.8413L36.6504 20.4701L36.6418 20.4694L36.3335 24.3095L37.1862 24.3639L40.9808 20.8413Z" fill="#F8A98E"/>
</g>
</svg>
