<svg preserveAspectRatio="none" width="100%" height="100%" overflow="visible" style="display: block;" viewBox="0 0 53.003 53.0001" fill="none" xmlns="http://www.w3.org/2000/svg">
<g id="Group 36">
<path id="Vector" d="M53.003 26.1983C53.003 28.3298 53.003 30.461 53.003 32.5919C53.003 33.4017 52.7963 33.6449 52.0103 33.8737C49.0869 34.7247 46.1128 35.3713 43.1674 36.1322C39.0545 37.1952 35.2574 38.9291 31.9781 41.6985C31.7298 41.9082 31.6056 41.8823 31.3958 41.6627C30.5796 40.8079 29.7498 39.9646 28.8215 39.2227C28.5883 39.0366 28.6133 38.9222 28.8276 38.7347C32.6694 35.3621 37.0806 33.1249 42.0309 31.9217C43.8027 31.4916 45.5798 31.0898 47.3606 30.7017C47.7271 30.6209 48.0996 30.5599 48.4721 30.5126C48.6887 30.4844 48.7371 30.3761 48.7371 30.1778C48.7371 27.6052 48.7396 25.0327 48.7447 22.4605C48.7447 22.1624 48.5668 22.1227 48.3464 22.0793C47.0661 21.8116 45.7903 21.5234 44.5061 21.2764C44.2101 21.2192 44.1563 21.0888 44.2032 20.8494C44.4455 19.6759 44.6939 18.5039 45.0225 17.3518C45.0876 17.123 45.1921 17.0376 45.448 17.0933C47.6771 17.5759 49.91 18.0426 52.1398 18.5222C52.7402 18.6518 52.9969 18.9927 52.9977 19.621C53.0012 21.816 53.003 24.0084 53.003 26.1983Z" fill="var(--fill-0, #0146BE)"/>
<path id="Vector_2" d="M46.4704 44.8243C46.4651 45.3656 46.1804 45.6417 45.789 45.8666C43.413 47.2213 41.0406 48.5821 38.6716 49.949C37.2583 50.7624 35.8419 51.5727 34.4225 52.3799C33.8455 52.7093 33.4874 52.6521 32.9997 52.19C30.7972 50.1054 28.7392 47.8766 26.6093 45.7187C23.595 42.6686 20.1636 40.2286 16.0848 38.8127C15.7819 38.7082 15.7501 38.5763 15.8364 38.2987C16.1831 37.1994 16.4593 36.0787 16.6632 34.9437C16.7238 34.5907 16.8495 34.5625 17.1637 34.6646C21.5764 36.1065 25.4266 38.4833 28.7574 41.7216C30.5836 43.4975 32.3387 45.3427 33.9598 47.3123C34.1635 47.5601 34.2945 47.5975 34.5815 47.4313C36.7646 46.1655 38.9556 44.9145 41.1544 43.6782C41.4466 43.5135 41.5186 43.3732 41.4027 43.0438C40.9901 41.8711 40.6282 40.68 40.2185 39.5058C40.0898 39.136 40.1087 38.9614 40.5312 38.8279C41.6246 38.484 42.7119 38.1272 43.8234 37.8443C44.074 37.7802 44.1982 37.8107 44.2852 38.0799C44.9864 40.2462 45.7011 42.4079 46.4098 44.5711C46.4386 44.6687 46.4575 44.7732 46.4704 44.8243Z" fill="var(--fill-0, #0146BE)"/>
<path id="Vector_3" d="M37.5856 24.4763C37.547 21.045 38.2595 17.7457 39.2468 14.4875C39.7352 12.8755 40.2402 11.2689 40.8429 9.69666C40.9406 9.44122 40.9262 9.31541 40.6627 9.16291C38.4321 7.88902 36.2094 6.60141 33.9944 5.30006C33.7059 5.13003 33.5924 5.26347 33.4364 5.43579C32.5732 6.39274 31.7017 7.34205 30.8507 8.31043C30.6235 8.56358 30.4804 8.61543 30.2048 8.36457C29.3462 7.57462 28.4633 6.81058 27.6426 5.97945C27.4306 5.76595 27.4533 5.64929 27.6426 5.44113C29.1455 3.7964 30.6341 2.13796 32.1333 0.484846C32.6565 -0.0908447 32.9609 -0.136595 33.6416 0.256095C36.8418 2.08611 40.0406 3.91866 43.2378 5.75376C43.8436 6.09917 44.444 6.44382 45.0452 6.79305C45.5828 7.10491 45.7191 7.4366 45.5752 8.04203C44.8514 11.0387 43.9094 13.9728 43.0856 16.9405C42.2906 19.8075 41.8166 22.7279 41.9348 25.7215C41.9735 26.9381 42.1115 28.1495 42.3474 29.3434C42.4171 29.6804 42.305 29.762 42.0279 29.8275C40.8816 30.0947 39.751 30.4256 38.6411 30.8188C38.3382 30.9286 38.2625 30.844 38.2012 30.5489C37.7923 28.5509 37.5861 26.5163 37.5856 24.4763Z" fill="var(--fill-0, #0146BE)"/>
<path id="Vector_4" d="M6.5301 8.13555C6.5301 7.74058 6.7103 7.46455 7.04118 7.27469L15.4593 2.44117C16.4822 1.85404 17.5082 1.27301 18.5281 0.679022C19.1278 0.329794 19.4783 0.374018 19.9887 0.848295C22.0095 2.72863 23.9055 4.73707 25.8097 6.73178C28.1781 9.21755 30.8153 11.3472 33.8614 12.9378C34.8393 13.4492 35.8537 13.8865 36.8961 14.2463C37.1702 14.3408 37.2285 14.443 37.1399 14.7335C36.8052 15.8361 36.5016 16.9448 36.3146 18.0885C36.254 18.4599 36.0943 18.4988 35.7755 18.3935C32.7172 17.378 29.8418 15.8717 27.2604 13.9329C24.6164 11.9504 22.3836 9.53627 20.181 7.09092C19.7857 6.65248 19.3958 6.20718 19.0301 5.74434C18.8325 5.49424 18.6719 5.45992 18.3903 5.6231C16.4656 6.73636 14.5288 7.83436 12.601 8.93237C12.5617 8.95448 12.5253 8.98422 12.4874 9.00862C12.1505 9.20459 11.6409 9.30524 11.541 9.64303C11.4517 9.94803 11.7121 10.3567 11.8295 10.7159C12.1551 11.7117 12.4791 12.7075 12.8214 13.698C12.9115 13.9588 12.8577 14.0663 12.5942 14.1555C11.4585 14.5269 10.3356 14.918 9.17184 15.1872C8.90229 15.249 8.80007 15.2055 8.71375 14.9409C8.02246 12.8196 7.31603 10.7037 6.61869 8.58391C6.57926 8.43661 6.54967 8.28683 6.5301 8.13555Z" fill="var(--fill-0, #0146BE)"/>
<path id="Vector_5" d="M0.0106002 33.9706C0.0106002 29.487 0.0106002 25.0035 0.0106002 20.52C0.0106002 20.3675 0.00378581 20.215 0 20.0625C0.112817 19.6522 0.399781 19.4525 0.791991 19.3358C3.6162 18.5032 6.48509 17.8543 9.34111 17.1467C13.6259 16.0845 17.5942 14.346 20.9946 11.4401C21.1892 11.2738 21.3096 11.2357 21.511 11.4454C22.3597 12.3322 23.2297 13.1992 24.183 13.9762C24.4472 14.192 24.2648 14.2812 24.1194 14.4138C22.3477 15.9804 20.4023 17.3357 18.3218 18.4528C15.0017 20.2523 11.4036 21.1902 7.75864 21.9924C6.69861 22.2257 5.63026 22.427 4.56039 22.6138C4.28781 22.6619 4.21966 22.7663 4.22042 23.0225C4.22446 25.5642 4.22017 28.1059 4.20755 30.6476C4.20755 30.9373 4.30522 31.0372 4.57553 31.0906C5.84832 31.343 7.11581 31.6198 8.38708 31.879C8.68616 31.9392 8.84138 32.0033 8.75128 32.3975C8.4893 33.5199 8.27124 34.653 7.95247 35.7632C7.8707 36.0484 7.75182 36.1208 7.4747 36.0629C5.26076 35.5947 3.04455 35.138 0.829849 34.6721C0.436882 34.5874 0.134775 34.3816 0.0106002 33.9706Z" fill="var(--fill-0, #0146BE)"/>
<path id="Vector_6" d="M15.3633 28.3129C15.4057 31.6413 14.8431 34.7302 13.9368 37.7725C13.3773 39.6491 12.8253 41.5264 12.1128 43.3503C12.0242 43.579 12.0242 43.7239 12.2695 43.8642C14.5107 45.1513 16.7476 46.4476 18.9803 47.753C19.19 47.875 19.3081 47.8445 19.4626 47.6386C20.2705 46.5558 21.145 45.5333 22.1762 44.6519C22.3943 44.4666 22.5033 44.5047 22.6987 44.6686C23.6073 45.4311 24.45 46.2531 25.2874 47.0873C25.5085 47.3084 25.479 47.4228 25.2715 47.6211C23.6402 49.1813 22.1189 50.8542 20.7187 52.6277C20.5727 52.8155 20.3633 52.9426 20.1302 52.9848C19.8971 53.027 19.6568 52.9813 19.455 52.8564C15.6253 50.6624 11.7968 48.4669 7.9696 46.2699C7.37523 45.9291 7.2556 45.6065 7.43429 44.8974C8.10968 42.2042 8.89107 39.5423 9.68533 36.8827C10.2754 34.9071 10.69 32.8825 10.9241 30.833C11.2012 28.4136 11.0399 26.0178 10.6113 23.6342C10.5606 23.3551 10.6371 23.3063 10.8665 23.2453C12.031 22.9334 13.2016 22.6353 14.3389 22.2319C14.6251 22.1305 14.6993 22.2319 14.7576 22.4965C15.0006 23.5938 15.1361 24.7078 15.2618 25.8203C15.3524 26.6478 15.3863 27.4807 15.3633 28.3129Z" fill="var(--fill-0, #0146BE)"/>
</g>
</svg>
