<svg xmlns="http://www.w3.org/2000/svg" width="183" height="206" viewBox="0 0 183 206" fill="none">
<path d="M1.68284 156.206C1.63159 156.195 1.59419 156.106 1.54117 156.077C1.31998 155.955 1.25121 155.873 1.05996 155.753C0.775751 155.576 -0.166823 155.216 0.0288065 154.81C0.0288114 154.81 0.0288164 154.81 0.0288213 154.81C0.0307523 154.806 0.0327798 154.802 0.0349316 154.798C0.0755458 154.722 0.193501 154.675 0.247191 154.593C0.300873 154.512 0.565505 153.943 0.689719 153.964C0.867978 153.999 1.17526 154.325 1.26182 154.358C1.3211 154.381 1.41601 154.364 1.49326 154.389C1.74205 154.472 1.84676 154.568 2.12819 154.53C2.17887 154.645 2.22953 154.759 2.28016 154.873C2.4079 154.892 2.53065 155.069 2.60069 155.095C2.65817 155.117 2.71803 155.074 2.77693 155.098C2.84313 155.125 2.91277 155.234 3.03442 155.28C3.2355 155.355 3.34234 155.219 3.46795 155.254C3.59841 155.29 3.748 155.46 3.92662 155.478C3.95366 155.47 3.98071 155.462 4.00772 155.454C4.01145 155.41 4.01519 155.365 4.01892 155.321C4.10443 155.339 4.10175 155.432 4.1721 155.466C4.25483 155.506 4.3313 155.452 4.38719 155.478C4.433 155.499 4.46784 155.587 4.52933 155.611C4.61987 155.646 4.63969 155.551 4.6944 155.557C4.71633 155.559 5.0865 155.671 5.10624 155.679C5.25697 155.743 5.21682 155.866 5.331 155.93C5.6469 156.106 6.02883 156.163 6.35203 156.263C6.49601 156.307 6.63545 156.377 6.76308 156.455C6.41607 156.663 6.78777 157.106 6.81732 156.556C6.9395 156.689 7.10036 156.607 7.23695 156.692C7.32456 156.747 7.36105 156.841 7.49545 156.897C7.73431 156.996 8.07197 156.919 7.99581 157.286C8.29683 157.343 8.48962 157.569 8.71556 157.312C8.79522 157.324 8.90514 157.579 8.97582 157.637C9.04319 157.692 9.59262 158.013 9.68983 158.057C9.78466 158.101 9.95166 158.175 10.0435 158.181C10.1588 158.189 10.355 157.905 10.3898 158.343C10.6126 158.398 10.6814 158.437 10.8633 158.558C10.8961 158.58 10.8788 158.636 10.8997 158.644C10.9428 158.661 11.0319 158.65 11.1106 158.675C11.24 158.716 11.2675 158.859 11.3215 158.678C11.416 158.681 11.5104 158.684 11.6047 158.687C11.6207 158.732 11.6368 158.777 11.6529 158.822C11.7114 158.802 11.7699 158.782 11.8283 158.762C11.679 158.996 12.0485 158.965 12.0025 158.781C12.1446 158.895 12.2868 159.009 12.4291 159.122C12.2981 159.403 12.7725 159.289 12.7987 159.119C12.8171 159.126 12.8355 159.133 12.8539 159.14C12.9876 159.277 13.1576 159.268 13.3384 159.393C13.5185 159.517 13.4895 159.538 13.5019 159.694C13.5515 159.703 13.6011 159.712 13.6507 159.721C14.0269 159.442 13.7578 160.063 14.2775 159.928C14.3312 160.207 14.7084 160.201 14.9527 160.206C14.9812 160.207 14.9969 160.162 15.0358 160.16C15.1307 160.155 15.3242 160.284 15.3657 160.137C15.4253 160.203 15.4847 160.27 15.5447 160.337C15.6142 160.33 15.6836 160.324 15.753 160.318C15.7677 160.272 15.7824 160.227 15.7971 160.181C15.8679 160.376 16.0793 160.379 16.1617 160.447C16.1781 160.461 16.1618 160.525 16.2148 160.561C16.2766 160.603 16.4101 160.626 16.4853 160.671C16.5392 160.612 16.5931 160.552 16.6468 160.493C16.8039 160.501 16.7975 160.701 16.8791 160.742C16.8938 160.75 17.1805 160.825 17.1969 160.825C17.3311 160.832 17.3442 160.665 17.6934 160.808C17.7555 160.833 17.7909 160.903 17.8482 160.923C17.9488 160.958 18.2958 160.926 18.3533 160.818C18.4356 160.998 18.7858 161.036 18.872 161.105C18.8979 161.126 18.8786 161.22 18.9643 161.265C19.0337 161.302 19.2448 161.282 19.3355 161.32C19.4316 161.361 19.4461 161.448 19.4894 161.466C19.5304 161.483 19.5864 161.431 19.6439 161.447C19.8232 161.499 19.9594 161.642 20.1016 161.682C20.307 161.74 20.5378 161.603 20.7311 161.565C20.7707 161.588 20.8027 161.638 20.8475 161.65C21.4013 161.798 22.0211 161.983 22.5733 162.151C22.8289 162.229 23.4238 162.623 23.3418 162.163C23.4476 162.11 24.0716 162.419 24.1968 162.446C24.3219 162.474 24.4367 162.418 24.5356 162.436C24.8339 162.491 25.0353 162.587 25.4104 162.588C25.5073 162.588 25.6242 162.516 25.6795 162.527C25.7461 162.54 25.8026 162.64 25.8885 162.661C26.0933 162.711 26.4861 162.748 26.6815 162.796C26.7173 162.805 26.7174 162.884 26.7654 162.916C26.9526 163.044 27.1823 163.071 27.1806 162.819C27.4185 162.999 27.6807 162.909 27.9212 162.936C28.4316 162.996 29.3555 163.176 29.8138 163.124C30.1028 163.091 30.1096 162.98 30.5101 163.121C30.5993 163.153 30.6874 163.191 30.7962 163.228C31.0507 163.315 31.2729 163.544 31.4969 163.316C31.7799 163.408 32.0151 163.383 32.2136 163.613C32.2434 163.565 32.2733 163.516 32.3031 163.467C32.339 163.469 32.3749 163.471 32.4108 163.472C32.418 163.522 32.4252 163.571 32.4324 163.621C32.6901 163.655 33.0281 163.481 33.2442 163.497C33.607 163.527 34.5391 163.662 34.8817 163.744C35.064 163.788 35.0789 163.685 35.1744 163.903C35.2164 163.891 35.2585 163.878 35.3006 163.865C35.3286 163.819 35.3567 163.773 35.3847 163.728C35.6192 163.736 35.8939 163.82 36.1189 163.828C36.5306 163.842 37.1465 163.73 37.5555 163.822C37.6583 163.846 37.786 163.945 37.8877 163.945C38.0353 163.946 38.076 163.786 38.2607 163.786C38.5785 163.785 39.1769 163.975 39.4847 163.96C39.5762 163.956 39.6177 163.896 39.6795 163.889C39.9388 163.861 40.1531 163.865 40.4031 163.77C40.6744 163.921 40.6541 164.119 40.7409 164.318C40.8066 164.469 41.009 164.816 41.0395 164.948C41.0607 165.04 40.9888 165.161 41.0182 165.263C40.6894 165.35 40.5499 165.261 40.2832 165.12C39.7955 165.13 39.3043 165.136 38.8132 165.139C38.769 165.083 38.7249 165.027 38.6809 164.971C38.6809 164.97 38.6809 164.97 38.6809 164.97C38.494 164.904 38.4136 165.047 38.3124 165.079C37.3301 165.385 35.4272 165.08 34.3572 164.979C34.1309 164.959 33.3711 164.985 33.2209 164.883C33.1817 164.856 33.1765 164.77 33.1334 164.763C32.7442 164.786 32.3491 164.806 31.9563 164.823C31.1738 164.62 30.3377 164.645 29.5308 164.569C27.3536 164.363 25.1997 164.071 23.0965 163.597C22.6905 163.506 22.1605 163.452 21.7729 163.318C21.6112 163.262 21.5746 163.111 21.3334 163.159C21.3399 163.122 21.3464 163.085 21.3529 163.049C21.1532 163.046 21.012 163.099 20.7978 163.054C20.6174 163.017 20.144 162.901 19.9903 162.846C19.9106 162.817 19.9588 162.758 19.8828 162.738C19.7526 162.705 19.45 162.724 19.2705 162.674C19.1081 162.63 18.8556 162.477 18.7285 162.453C18.2705 162.367 17.7471 162.338 17.2818 162.164C17.1531 162.115 17.0109 161.977 16.9692 161.967C16.8875 161.947 16.8377 162.024 16.7805 162.018C16.4889 161.988 16.0953 161.753 15.8301 161.663C14.9626 161.368 14.0351 161.091 13.186 160.768C12.6452 160.564 11.7486 160.247 11.2774 159.994C11.1763 159.94 11.2391 159.861 11.1499 159.827C11.051 159.789 10.9739 159.828 10.9257 159.815C10.5908 159.726 9.86114 159.507 9.58531 159.323C9.53269 159.288 9.51928 159.202 9.48483 159.188C9.46744 159.181 9.40884 159.213 9.35219 159.195C8.84954 159.041 8.51809 158.872 8.05289 158.657C7.1686 158.25 6.09854 157.89 5.18181 157.423C4.98458 157.322 4.90684 157.124 4.87782 157.113C4.81417 157.087 4.73306 157.161 4.59608 157.126C4.13884 157.008 3.61878 156.653 3.19881 156.513C2.99169 156.445 2.66292 156.432 2.45886 156.367C2.29587 156.316 1.95286 156.1 1.86034 156.118C1.80424 156.128 1.73867 156.217 1.68284 156.206ZM7.60469 157.035C7.50865 157.182 7.8568 157.175 7.78409 157.043C7.76776 157.013 7.62965 156.997 7.60469 157.035ZM21.5199 162.13C21.5287 162.081 21.5376 162.033 21.5465 161.984C21.5013 161.994 21.4561 162.004 21.4108 162.014C21.4264 162.049 21.442 162.083 21.4577 162.118C21.4784 162.122 21.4991 162.126 21.5199 162.13Z" fill="white"/>
<path d="M78.3588 198.503C78.532 198.782 78.7407 199.206 78.9891 199.517C80.0605 200.786 80.5727 201.204 81.8904 202.032C82.8695 202.642 85.0672 203.543 87.066 203.76C89.1269 204.07 90.463 203.414 90.5286 203.547C90.5286 203.547 90.5286 203.547 90.5287 203.547C90.5315 203.551 90.534 203.555 90.5361 203.559C90.6039 203.64 90.1761 204.008 90.1193 204.118C90.0692 204.224 90.3952 204.856 89.4092 205.102C87.9754 205.519 84.816 204.742 84.1671 204.475C83.7029 204.336 83.1208 204.187 82.5446 203.945C80.705 203.127 79.8359 202.503 78.3964 201.326C77.9311 200.737 77.5292 200.102 77.2137 199.433C76.9474 199.039 76.6897 198.499 76.5143 197.974L76.8379 198.25C76.3155 198.12 75.8392 197.991 75.5652 197.935C75.1182 197.842 74.8433 197.847 74.3806 197.743C73.8586 197.625 73.0777 197.369 72.1376 197.117C70.5976 196.692 70.2755 196.744 69.3558 196.424C68.4008 196.087 67.0018 195.342 65.8867 194.649C65.7396 194.572 65.5934 194.493 65.4488 194.41C65.52 194.514 65.5931 194.617 65.6681 194.719C65.1068 194.35 64.9305 194.102 64.467 193.698C63.9276 193.213 63.6167 192.995 63.2897 192.624C63.0247 192.32 62.7359 191.847 62.4451 191.42C62.027 190.791 62.0397 190.971 61.819 190.628C61.7895 190.58 61.5903 190.247 61.3688 189.799L61.9519 190.276C61.0909 190.079 59.8657 189.826 59.7597 189.803C58.5775 189.54 58.5035 189.394 57.5558 189.162C54.9586 188.534 52.0157 187.755 49.9861 185.873C49.0812 185.067 48.3213 184.056 47.7418 183.049C48.9535 184.427 47.1652 180.855 47.4518 182.403C47.1601 181.787 46.9046 181.295 46.6509 180.781L47.3952 181.271C46.8775 181.285 46.3863 181.287 45.8181 181.237C45.0411 181.165 44.5244 181.052 43.4329 180.911C41.4995 180.679 39.3229 180.287 38.9031 179.726C36.6332 179.072 35.0283 177.486 34.4005 176.621C34.1483 176.169 34.0177 175.05 34.2408 174.262C34.3209 173.93 34.4184 173.646 34.4856 173.436C34.5324 172.704 36.8824 168.48 37.4094 167.898C37.8467 167.247 38.6751 166.154 39.0778 165.63C39.5788 164.975 39.7073 164.281 41.0434 163.507C42.2744 162.297 42.7669 161.894 44.1691 161.059C44.4296 160.913 44.4855 160.951 44.6374 160.867C44.9526 160.695 45.4729 160.382 46.0939 160.168C46.3164 160.091 46.5279 160.036 46.7109 159.999C47.3603 159.867 47.7147 159.884 47.6029 159.747C48.2992 159.622 49.041 159.585 49.7783 159.692C50.0278 159.776 50.2711 159.877 50.5058 159.994C50.8922 160.082 51.2731 160.214 51.6398 160.391C51.3685 160.39 51.8616 160.694 52.2686 161.018C52.6788 161.335 53.0415 161.65 52.7907 161.259C53.765 162.356 54.2825 163.714 54.4803 165.068C54.3036 165.003 54.4629 165.79 54.5129 166.556C54.5396 167.351 54.3994 167.978 54.5234 167.886C54.4775 168.047 54.436 168.18 54.3864 168.333C53.883 169.582 53.4627 170.691 52.7372 172.101C52.0026 173.5 52.032 173.348 51.6925 173.712C51.5325 174.046 51.3709 174.379 51.2084 174.71C50.6548 176.584 50.2433 176.014 48.9226 178.92L48.2016 178.494C48.2218 178.454 48.2299 178.434 48.2573 178.382C49.012 177.612 50.2903 175.328 51.165 173.836C51.2661 173.663 51.2316 173.629 51.3624 173.399C51.6874 172.828 52.6572 171.458 52.4963 171.426C52.8527 170.965 53.2112 170.505 53.5684 170.051C53.8103 169.639 54.0503 169.233 54.2934 168.825C54.2524 168.8 54.2115 168.775 54.1706 168.75C54.8405 168.051 55.6429 166.782 56.1032 166.2C56.1947 166.085 56.2668 166.096 56.5463 165.734C56.8747 165.309 57.4406 164.492 57.8389 163.99C57.9262 163.749 58.0178 163.503 58.1081 163.261C58.3671 162.889 58.5943 162.627 58.7906 162.424C59.1186 162.083 59.4045 161.895 59.726 161.617C59.7806 161.466 61.7219 160.202 61.8648 160.206C62.7983 159.837 62.3913 159.469 65.3944 159.121C65.9366 159.098 66.3725 159.172 66.8606 159.24C67.289 159.295 68.1673 159.454 68.9149 159.821C69.669 160.17 70.2413 160.701 70.3556 160.741C71.2084 161.623 71.971 164.436 71.8543 165.24C71.8478 165.483 71.7698 165.554 71.7272 166.281C71.7215 166.366 71.716 166.47 71.7093 166.591C71.6745 167.349 71.4232 168.533 71.2359 169.142C71.0016 169.902 70.8367 170.136 70.7258 170.463C70.6202 170.769 70.5818 171.088 70.4366 171.505C69.9742 172.827 69.4266 173.968 69.0242 174.99C68.4402 176.47 68.0819 177.838 67.6443 179.098C67.5038 179.4 67.3408 179.68 67.2047 179.998C66.1093 182.559 64.8738 185.304 63.6185 187.961L62.4482 187.403C63.1502 186 63.8816 184.593 64.5864 183.264C65.5078 181.493 68.1078 177.279 67.0971 178.23C67.3492 177.577 70.0045 173.281 70.5268 172.476C71.0303 171.654 71.37 170.968 71.7778 170.332C73.0431 168.417 73.9207 167.081 75.8083 164.92C76.313 164.363 76.9017 163.75 77.3611 163.494C77.3654 163.492 77.3697 163.489 77.3739 163.487C77.839 163.222 78.3883 163.031 79.0275 162.759C80.4789 162.015 83.8272 161.449 85.4448 162.349C85.7327 162.48 85.802 162.594 86.1682 162.84C87.6314 163.81 88.504 165.474 88.5567 165.05C88.9416 165.764 89.2449 166.468 89.5051 167.165C89.9639 168.568 89.796 169.788 89.6246 170.96C88.9865 174.955 86.18 181.423 84.8914 184.532C84.0759 186.491 84.2046 186.501 82.772 189.272C82.4494 189.891 82.1257 190.489 81.7264 191.238C80.8052 192.964 79.7901 194.492 79.3139 195.934C79.0489 196.403 78.7636 196.921 78.5245 197.346L77.0581 196.549C77.7785 195.284 78.4159 194.188 79.143 193.229C79.1918 193.04 79.2434 192.847 79.2976 192.65C79.4266 192.422 79.5571 192.193 79.6929 191.954C79.7777 191.905 79.863 191.854 79.9452 191.809C80.9101 190.162 81.9854 187.961 82.8376 186.575C84.2396 184.238 88.1246 178.365 90.0346 176.465C91.0329 175.447 91.0333 175.318 91.8856 174.977C92.0346 174.875 92.185 174.786 92.3398 174.716C92.4903 174.646 92.6495 174.575 92.8028 174.509C92.9706 174.396 93.1416 174.285 93.3147 174.177C95.035 173.58 97.2286 173.227 99.0378 173.464C101.269 173.496 104.135 175.827 104.551 178.544C104.865 179.958 104.688 181.219 104.496 182.27C104.346 183.054 104.021 183.987 103.806 184.728C103.488 185.794 103.56 186.104 103.064 187.431C102.238 189.735 99.9744 193.656 98.7137 195.559C98.3498 196.131 98.221 196.427 97.9614 196.818C96.8641 198.455 95.8652 199.73 94.6716 201.21C93.1808 202.612 93.1358 202.318 92.5571 202.617C92.1148 202.85 90.8109 203.544 90.5715 203.561C90.405 203.58 90.726 203.151 90.5101 203.2C92.2116 201.603 92.9345 200.935 94.2999 199.585C96.5852 196.881 98.5275 193.881 100.126 190.714C100.32 190.452 100.513 190.187 100.704 189.918C100.704 189.918 100.704 189.918 100.704 189.918C101.348 188.71 101.433 188.114 101.678 187.424C102.397 185.205 103.664 181.96 103.162 178.872C102.55 174.155 96.4702 174.122 92.7844 175.812C91.2339 176.673 89.9155 178.595 88.9049 179.905C87.8739 181.23 84.9756 185.871 84.3101 186.821C84.1337 187.063 84.0155 187.091 83.8461 187.36C82.4066 189.816 81.0097 192.312 79.6592 194.806C79.1917 195.592 78.7085 196.425 78.2681 197.208L77.3132 196.689C79.689 192.359 81.888 187.732 83.8776 183.199C85.9206 178.151 88.7899 172.541 88.188 167.65C87.4611 165.634 86.083 163.824 84.1057 163.418C82.1411 162.984 79.991 163.759 78.1316 164.832C74.1106 168.175 71.4086 173.698 68.5937 178.525C67.1201 181.176 65.3918 184.619 64.0329 187.259C63.9004 187.516 63.7463 187.8 63.6406 187.984L62.4165 187.4C62.7528 186.773 63.0698 186.22 63.4903 185.105C63.5312 185.105 63.5721 185.105 63.6131 185.104C64.1609 183.779 64.4489 182.924 65.0789 181.46C65.618 180.222 66.988 176.959 67.4363 175.862C67.672 175.294 67.6521 175.532 67.8624 175.001C68.2242 174.092 68.8841 172.099 69.3124 170.832C69.7113 169.697 70.386 167.728 70.4681 166.882C70.4851 166.747 70.4961 166.624 70.5009 166.516C70.5767 164.948 70.3556 163.29 69.4619 162.113C68.5909 160.929 67.0334 160.446 65.4663 160.536C64.5628 160.559 63.3809 160.826 63.1108 160.94C62.577 161.146 62.462 161.304 62.129 161.483C61.3955 161.887 60.5073 162.484 59.8858 163.267C58.9716 164.423 58.047 165.64 57.3834 166.571C54.5572 170.544 51.7835 174.853 49.1837 179.091L47.9261 178.348C48.8122 176.787 49.6677 175.205 50.473 173.643C51.4015 171.747 52.983 168.924 53.345 166.556C53.3743 164.143 51.9983 161.94 50.5275 161.323C49.8679 161.039 50.0726 161.013 49.4603 160.882C48.7647 160.774 48.3767 160.878 48.0502 160.907C47.7338 160.941 47.3807 161.001 46.9778 161.104C44.4501 161.653 41.3013 164.878 40.0413 166.396C39.7506 166.73 39.494 166.938 39.3323 167.15C39.251 167.257 39.1068 167.531 38.8655 167.876C37.3018 170.177 36.0793 172.223 35.5958 174.471C35.4816 175.166 35.5977 175.856 36.036 176.477C38.3336 179.186 43.2723 179.626 47.407 179.804L47.8212 179.805L47.9938 180.19C49.2926 183.284 51.5353 185.824 54.5715 186.832C56.0458 187.375 57.1078 187.746 57.3281 187.807C57.8114 187.921 58.1509 187.899 59.1485 188.098C60.1228 188.293 61.2017 188.525 62.3166 188.801L62.6085 188.871L62.7424 189.149C63.8073 191.543 65.9638 193.488 67.9535 194.425C69.323 195.127 71.3952 195.688 72.894 196.05C73.8974 196.311 76.0939 196.831 77.095 197.01L77.5324 197.098L77.6976 197.523C77.7616 197.679 77.8186 197.796 77.8577 197.863C78.0131 198.124 78.171 198.202 78.3588 198.503ZM42.2846 180.65C42.5375 180.539 40.1531 180.184 41.0166 180.464C41.2103 180.535 42.2192 180.688 42.2846 180.65ZM64.6303 185.116C64.684 185.117 64.7376 185.118 64.7913 185.12C64.8949 184.839 65.01 184.532 65.1127 184.251C65.0149 184.397 64.9205 184.535 64.819 184.689C64.7545 184.835 64.6915 184.978 64.6303 185.116Z" fill="white"/>
<path d="M14.552 99.5611C14.4546 99.5349 14.3499 99.4228 14.246 99.3771C13.8302 99.1927 13.6317 99.0631 13.2638 98.8843C12.665 98.6011 10.8663 97.9285 11.0437 97.5094C11.0437 97.5094 11.0437 97.5094 11.0437 97.5094C11.0455 97.5053 11.0473 97.5013 11.0491 97.4971C11.0594 97.4547 11.1062 97.4263 11.1837 97.4096C11.2313 97.3799 11.2927 97.3546 11.3237 97.3151C11.3722 97.2303 11.6582 96.6712 11.8448 96.7131C12.1874 96.8107 12.8318 97.2566 13.0281 97.3304C13.1424 97.3727 13.2905 97.3727 13.4414 97.4242C13.9542 97.601 14.1317 97.7186 14.6378 97.7571C14.7675 97.8978 14.9026 98.0404 15.0431 98.1849C15.2861 98.242 15.5745 98.4729 15.7082 98.5196C15.8189 98.5584 15.9072 98.524 16.0244 98.5672C16.1549 98.6148 16.3392 98.7624 16.5665 98.8403C16.951 98.9727 17.0839 98.8436 17.3271 98.915C17.5811 98.9898 17.9025 99.2116 18.2365 99.2757C18.2819 99.2732 18.3274 99.2707 18.3731 99.2683C18.36 99.2185 18.347 99.1688 18.3341 99.119C18.4959 99.1599 18.539 99.268 18.6761 99.3217C18.8382 99.3851 18.951 99.3407 19.0619 99.3829C19.1529 99.4176 19.2543 99.5254 19.3758 99.5665C19.553 99.6269 19.5478 99.5243 19.6489 99.5432C19.6965 99.5541 20.3909 99.7559 20.4326 99.7701C20.7302 99.8755 20.7124 100.006 20.9486 100.104C21.5848 100.369 22.3135 100.519 22.9233 100.691C23.2001 100.769 23.4831 100.876 23.7519 100.991C23.2135 101.154 24.0776 101.723 23.8921 101.113C24.1679 101.286 24.4273 101.227 24.7078 101.347C24.8884 101.424 24.9998 101.537 25.2625 101.623C25.7313 101.776 26.3129 101.751 26.3362 102.146C26.911 102.264 27.3504 102.543 27.6497 102.297C27.7994 102.324 28.1103 102.624 28.2627 102.698C28.4052 102.77 29.5556 103.209 29.745 103.269C29.9353 103.33 30.2705 103.434 30.4405 103.453C30.6543 103.478 30.8885 103.196 31.1437 103.677C31.5745 103.765 31.7219 103.818 32.1031 103.969C32.1721 103.997 32.1649 104.055 32.2065 104.067C32.2922 104.09 32.4495 104.088 32.6045 104.124C32.8591 104.183 32.9719 104.339 32.9915 104.15C33.1658 104.163 33.3399 104.176 33.5137 104.188C33.5629 104.238 33.6121 104.288 33.6614 104.338C33.7601 104.323 33.8581 104.307 33.957 104.291C33.7856 104.529 34.454 104.53 34.2872 104.328C34.597 104.463 34.9068 104.596 35.2164 104.727C35.0984 105.017 35.923 104.927 35.8952 104.748C35.9323 104.757 35.9694 104.765 36.0064 104.774C36.3143 104.927 36.6232 104.927 37.0095 105.065C37.3977 105.203 37.3538 105.223 37.4468 105.388C37.5424 105.399 37.6377 105.41 37.7329 105.42C38.2977 105.134 38.0813 105.782 38.9862 105.643C39.2136 105.933 39.9017 105.919 40.3598 105.912C40.4127 105.911 40.4206 105.864 40.4913 105.86C40.6644 105.85 41.0797 105.97 41.0855 105.816C41.2257 105.879 41.3731 105.944 41.5164 106.006C41.6421 105.994 41.767 105.981 41.8912 105.967C41.8962 105.92 41.9011 105.872 41.906 105.825C42.1321 106.016 42.5105 105.992 42.7038 106.05C42.7411 106.061 42.7433 106.128 42.8601 106.157C42.9968 106.191 43.2544 106.193 43.4148 106.225C43.4833 106.157 43.5512 106.088 43.6185 106.02C43.9024 105.999 44.0051 106.198 44.1755 106.222C44.2081 106.227 44.7705 106.235 44.7989 106.231C45.0424 106.202 44.9803 106.044 45.6943 106.077C45.8204 106.083 45.9227 106.138 46.0354 106.137C46.2259 106.14 46.8473 105.978 46.8777 105.854C46.9832 105.91 47.1577 105.922 47.3341 105.916C47.5746 105.909 47.828 105.864 47.9391 105.872C47.9973 105.877 48.0241 105.97 48.2029 105.96C48.3514 105.953 48.6929 105.809 48.8724 105.781C49.0631 105.752 49.1498 105.812 49.2364 105.797C49.3183 105.782 49.3766 105.701 49.4863 105.672C49.8199 105.585 50.1534 105.592 50.4229 105.506C50.816 105.381 51.075 105.084 51.361 104.883C51.4436 104.864 51.5356 104.872 51.6182 104.84C52.6182 104.45 53.7608 103.939 54.7442 103.46C55.2132 103.238 56.4446 102.835 55.9358 102.626C56.0582 102.473 57.2569 101.97 57.4741 101.838C57.6906 101.71 57.8126 101.544 57.9781 101.441C58.4748 101.131 58.8595 100.956 59.4258 100.516C59.5726 100.402 59.6909 100.217 59.7842 100.159C59.8969 100.088 60.0649 100.086 60.2112 99.9984C60.5592 99.7899 61.1873 99.3477 61.5227 99.1477C61.5844 99.1112 61.6479 99.1628 61.7471 99.1274C62.1335 98.9895 62.5057 98.7373 62.3032 98.572C62.8108 98.4102 63.1369 98.0442 63.5331 97.7783C64.3683 97.2157 65.9505 96.2778 66.6506 95.7295C67.0919 95.3828 67.0199 95.2936 67.7765 94.9554C67.9448 94.8805 68.1163 94.813 68.3204 94.7237C68.7986 94.5149 69.3139 94.4606 69.5403 94.0514C70.0757 93.829 70.4625 93.5717 70.9418 93.563C70.9632 93.4945 70.9848 93.426 71.0065 93.3575C71.069 93.324 71.1316 93.2907 71.1941 93.2575C71.2359 93.2908 71.2775 93.3243 71.3191 93.3577C71.7717 93.1424 72.2749 92.6786 72.6665 92.5016C73.3224 92.1882 75.0951 91.5578 75.7733 91.416C76.1337 91.3326 76.1221 91.2285 76.3859 91.3699C76.4595 91.3315 76.5332 91.2934 76.6072 91.2558C76.6426 91.1962 76.6784 91.1367 76.7145 91.0773C77.1648 90.9427 77.7335 90.8716 78.1693 90.7755C78.9677 90.5894 80.186 90.279 81.0271 90.3222C81.2378 90.3307 81.502 90.4172 81.7052 90.4127C82.0011 90.4074 82.0739 90.2456 82.4552 90.2522C83.1163 90.2553 84.3049 90.5801 84.9068 90.6994C85.0875 90.7319 85.1846 90.6926 85.3081 90.7143C85.8265 90.8065 86.2535 90.9343 86.7647 91.01C87.2293 91.3349 87.1112 91.51 87.1935 91.755C87.2573 91.9408 87.4702 92.4098 87.4635 92.5526C87.4598 92.6524 87.2866 92.7076 87.293 92.8219C86.7059 92.6613 86.5144 92.4986 86.099 92.2105C85.2332 91.939 84.3542 91.7605 83.4608 91.671C83.3852 91.6067 83.3085 91.5431 83.2309 91.4802C83.2309 91.48 83.2309 91.4799 83.2309 91.4798C82.8866 91.3857 82.7289 91.5236 82.5417 91.5483C80.7536 91.6968 77.2586 92.1576 75.3632 92.8996C74.9475 93.0369 73.6829 93.6509 73.3735 93.6999C73.2938 93.7101 73.2385 93.6406 73.1623 93.6715C72.516 94.025 71.8773 94.3993 71.2487 94.7873C69.8442 95.3733 68.5343 96.2684 67.2398 97.0909C63.7282 99.3182 60.3835 101.766 56.7626 103.828C56.0647 104.225 55.1922 104.772 54.4654 105.087C54.1584 105.221 53.9748 105.157 53.6285 105.434C53.6086 105.402 53.5887 105.371 53.5688 105.339C53.2507 105.537 53.0526 105.719 52.6653 105.894C52.3473 106.042 51.4414 106.399 51.1395 106.482C50.9821 106.529 51.0174 106.443 50.8692 106.493C50.6145 106.581 50.1026 106.838 49.744 106.93C49.4141 107.019 48.8479 107.061 48.5983 107.116C48.2339 107.2 47.8581 107.283 47.4738 107.348C46.9115 107.444 46.281 107.509 45.7046 107.494C45.435 107.488 45.0799 107.393 44.9971 107.394C44.8362 107.396 44.7854 107.482 44.6757 107.49C44.112 107.532 43.247 107.371 42.7016 107.314C40.9301 107.137 39.072 106.873 37.351 106.509C36.2573 106.284 34.4666 105.883 33.4892 105.563C33.2797 105.495 33.3603 105.416 33.1817 105.37C32.9836 105.319 32.8598 105.354 32.7658 105.335C32.113 105.205 30.6862 104.878 30.1032 104.637C29.9922 104.592 29.9303 104.495 29.8618 104.476C29.8272 104.466 29.7345 104.492 29.6244 104.465C28.6519 104.227 27.9649 103.985 27.0329 103.673C25.2545 103.076 23.1645 102.469 21.3271 101.754C20.926 101.598 20.7063 101.36 20.6501 101.341C20.5236 101.298 20.4068 101.363 20.1448 101.293C19.2847 101.065 18.2026 100.544 17.3835 100.283C17.0014 100.163 16.3883 100.061 16.0106 99.9425C15.6933 99.8426 14.9883 99.5086 14.8364 99.5075C14.7379 99.5044 14.658 99.5891 14.552 99.5611ZM25.5176 101.796C25.4075 101.942 26.0334 101.997 25.8445 101.837C25.8019 101.801 25.5459 101.758 25.5176 101.796ZM53.0811 104.538C53.0553 104.495 53.0295 104.453 53.0038 104.41C52.9422 104.461 52.8771 104.514 52.8126 104.565C52.8659 104.574 52.9195 104.582 52.9731 104.59C53.0098 104.573 53.0451 104.555 53.0811 104.538Z" fill="white"/>
<path d="M118.181 191.287C117.873 191.598 117.361 191.946 116.948 192.242C115.184 193.444 114.413 193.724 112.577 194.255C111.224 194.65 108.319 194.986 105.935 194.193C103.531 193.47 101.965 191.958 102.111 191.803C102.111 191.803 102.111 191.803 102.111 191.803C102.114 191.799 102.117 191.796 102.121 191.794C102.198 191.751 102.807 192.091 102.944 192.061C103.081 192.03 103.375 191.507 104.159 191.928C105.26 192.661 108.333 193.467 109.063 193.359C109.546 193.362 110.136 193.279 110.742 193.185C112.682 192.842 113.71 192.473 115.159 191.458C115.804 191.161 116.427 190.801 117.013 190.379C117.697 189.74 118.653 188.682 118.928 188.177C119.165 187.774 119.236 187.502 119.43 187.062C119.644 186.57 120.003 185.803 120.13 184.82C120.195 184.317 120.188 183.943 120.163 183.634L120.167 182.922L120.814 183.206C121.475 183.425 121.824 183.46 122.46 183.625C123.419 183.884 124.967 184.156 126.201 183.868C126.352 183.824 126.501 183.776 126.65 183.723C126.532 183.707 126.413 183.689 126.299 183.667C126.897 183.53 127.174 183.536 127.709 183.337C128.334 183.088 128.595 182.844 128.978 182.612C129.291 182.42 129.74 182.18 130.107 181.858C130.633 181.384 130.449 181.412 130.703 181.133C130.871 181.078 132.471 178.755 132.479 178.569C133.032 177.487 133.178 177.428 133.525 176.506C134.062 174.99 134.308 173.343 134.273 171.767L134.279 170.659L135.332 170.973C136.338 171.242 137.376 171.25 138.344 171.081C139.394 170.903 140.468 170.508 141.422 169.98C140.745 170.535 141.273 170.433 141.794 170.17C142.314 169.904 142.766 169.489 142.025 169.69C143.086 169.059 143.646 168.349 144.408 167.482C144.889 166.908 145.268 166.527 145.771 165.574C146.699 163.854 146.669 161.778 146.998 161.239C146.947 159.761 146.557 158.442 146.075 157.586L145.743 156.887L146.474 156.659C146.976 156.467 147.347 156.269 147.577 156.063C148.126 155.847 149.595 155.384 150.183 155.06C150.468 154.915 151.67 154.25 152.725 153.34C153.792 152.454 154.636 151.321 154.843 150.989C155.296 150.346 155.874 149.092 156.015 148.448C156.2 147.628 156.032 147.07 156.424 145.625C156.3 143.925 156.138 143.319 155.571 141.824C155.528 141.72 155.506 141.649 155.491 141.59L155.669 141.794C155.673 141.785 155.644 141.753 155.59 141.71C155.54 141.668 155.541 141.662 155.496 141.633C155.433 141.592 155.32 141.522 155.205 141.453C155.119 141.403 155.014 141.342 154.885 141.266C154.585 141.087 154.391 140.977 154.083 140.782C153.19 140.221 152.701 139.764 152.714 139.995C152.123 139.656 151.483 139.287 150.875 138.939C150.686 138.776 150.463 138.592 150.293 138.442C149.963 138.281 149.623 138.112 149.272 137.938C149.782 137.937 147.46 136.666 148.105 137.256C146.947 136.463 145.817 135.691 144.695 134.927C145.014 134.76 142.15 133.308 142.284 133.59C142.149 133.506 142.013 133.421 141.876 133.337C140.768 132.558 139.638 131.943 138.236 131.024C136.825 130.102 136.984 130.165 136.619 129.777C136.277 129.579 135.928 129.378 135.587 129.182C133.619 128.454 134.276 128.055 131.07 126.498C130.223 125.71 127.744 124.402 126.101 123.541C125.91 123.44 125.883 123.48 125.627 123.349C125.002 123.028 123.477 122.086 123.453 122.25C122.936 121.904 122.421 121.561 121.904 121.219C121.445 120.993 120.989 120.768 120.534 120.546C120.513 120.59 120.492 120.633 120.47 120.676C119.672 120.042 118.216 119.312 117.554 118.908C117.423 118.828 117.421 118.751 116.996 118.501C116.495 118.204 115.568 117.729 114.965 117.387C114.694 117.326 114.424 117.267 114.156 117.209C113.071 116.685 112.769 116.314 112.138 115.974C112.032 115.913 109.918 114.87 109.806 114.825C108.883 114.419 109.054 114.65 106.362 113.385C105.875 113.16 105.54 112.952 105.073 112.751C104.293 112.395 101.903 111.635 101.65 111.7C101.481 111.616 101.26 111.524 101.017 111.436C100.253 110.986 98.7685 112.198 98.4055 112.66C98.2529 112.824 98.1313 112.788 97.7079 113.36C97.4859 113.662 97.1111 114.343 96.8818 114.976C96.7519 115.326 96.6217 115.673 96.5159 115.93C96.2017 116.691 96.0187 116.942 95.8822 117.276C95.748 117.606 95.6954 117.919 95.5201 118.37C94.9831 119.749 94.3989 120.978 93.9766 122.071C93.3642 123.656 93.0049 125.127 92.5757 126.487C92.4395 126.808 92.2748 127.124 92.1439 127.466C91.369 129.486 90.5295 131.661 89.7022 133.799L89.6012 134.06L89.352 134.17C86.9952 135.2 84.6078 136.225 82.1924 136.841C81.1391 137.123 79.198 137.398 77.7095 137.246C76.2241 137.117 75.2327 136.761 75.9017 137.196C75.5045 137.149 73.8896 136.607 72.5481 135.623C71.1794 134.665 70.0687 133.439 69.7069 133.055C69.0098 132.31 68.4571 131.752 67.9518 131.124L67.7307 130.84L67.8139 130.498C67.8213 130.466 67.8288 130.433 67.8364 130.401C68.3937 128.036 68.8427 126.384 69.4594 123.491C69.6184 122.744 69.7179 121.926 69.8233 121.486C69.9505 120.957 70.1722 120.407 70.3405 119.721C70.7411 118.087 71.436 115.03 71.8234 113.463C71.8943 113.176 71.9941 113.094 72.115 112.689C72.5864 111.114 73.0028 109.322 72.6855 109.581C73.3084 107.567 73.632 105.643 74.0741 103.745C74.1707 103.33 74.2763 102.881 74.3889 102.404L74.556 102.069C77.375 98.7116 82.3791 94.6293 85.1131 92.7918C87.0202 91.5036 86.8957 91.3734 89.9733 89.9025C90.667 89.5866 91.3622 89.2972 92.2208 88.9677C94.2412 88.1931 96.1848 87.8238 97.737 87.2265C98.9858 86.9844 100.106 86.8191 101.158 86.7424C102.113 86.6734 103.003 86.709 103.845 86.8534C104.06 86.8137 104.273 86.7773 104.489 86.7444C104.785 86.7683 105.082 86.7988 105.379 86.8356C105.465 86.8957 105.551 86.9563 105.634 87.0172C107.726 87.3039 110.347 87.9038 111.999 88.5684C114.855 89.5317 121.391 93.4316 123.621 95.0789C124.833 95.9257 124.945 95.8815 125.528 96.536C125.809 96.7095 126.087 96.8826 126.364 97.0551C126.562 97.1344 126.759 97.2134 126.955 97.2921C128.508 98.3628 130.291 99.7082 131.768 100.706C133.827 102.035 136.955 104.269 139.445 104.465C140.164 104.466 140.943 104.31 141.626 104.163C142.401 103.995 143.397 103.788 144.157 103.533C145.262 103.158 145.465 102.915 146.856 102.403C149.252 101.514 153.783 99.9715 156.082 99.1721C156.761 98.9318 157.064 98.7661 157.535 98.6016C159.515 97.9127 161.164 97.4122 163.094 96.8092C165.236 96.4231 165.103 96.6843 165.796 96.7321C166.325 96.7659 167.905 96.828 168.137 96.9302C168.301 96.9967 167.764 97.2088 167.99 97.2742C165.516 97.8001 164.466 97.9848 162.43 98.3849C158.746 99.4138 155.135 100.727 151.535 102.087C151.188 102.158 150.836 102.231 150.492 102.301C150.492 102.301 150.492 102.301 150.492 102.301C149.085 102.763 148.544 103.12 147.808 103.429C145.647 104.251 143.01 105.613 139.438 105.89C131.322 103.79 125.104 96.9561 119.888 94.1911C118.386 93.1759 113.181 90.5367 112.044 90.0772C111.759 89.9349 111.708 89.8219 111.394 89.6958C108.562 88.6554 105.577 87.9625 102.618 88.0567C102.175 88.0535 101.733 88.0693 101.292 88.1052C95.5302 88.5677 89.9741 91.1947 85.2118 94.4953C81.6993 96.9353 78.4268 99.8241 75.6731 102.996L75.8013 102.739C73.6023 112.15 71.4106 121.51 69.2059 130.828L69.0762 130.24C70.937 132.587 73.1098 134.787 75.8269 135.662C78.7347 136.723 82.7292 135.431 85.6339 134.271C86.8188 133.806 87.378 133.704 88.8169 132.972L88.4762 133.333C88.4958 133.273 88.5036 133.243 88.5298 133.164C88.57 133.164 88.6105 133.162 88.6513 133.159C89.1527 131.715 89.421 130.772 90.0261 129.161C90.534 127.808 91.891 124.244 92.3627 123.056C92.6066 122.44 92.5826 122.698 92.804 122.12C93.1817 121.133 93.9025 118.993 94.431 117.633C94.7655 116.771 95.3003 115.505 95.7188 114.511C95.9142 114.046 96.1236 113.657 96.2805 113.373C97.2393 111.833 98.5965 109.491 101.444 110.002C103.36 110.549 105.173 111.288 106.95 112.096C107.977 112.563 109.141 113.218 109.473 113.376C110.075 113.66 110.275 113.661 110.681 113.848C112.737 114.79 115.81 116.52 117.74 117.576C124.057 121.02 130.63 124.834 136.744 128.546C140.608 130.883 147.001 134.825 150.49 137.113C151.227 137.595 150.974 137.549 151.627 137.962C152.317 138.4 152.755 138.601 153.084 138.804C153.884 139.298 155.084 140.043 156.303 140.816L156.459 140.916L156.543 141.09C157.906 143.648 157.837 147.146 157.199 148.783C157.037 149.278 156.827 149.599 156.709 149.88C156.647 150.023 156.555 150.367 156.327 150.804C154.19 154.593 151.241 156.329 147.423 157.712C147.241 157.774 147.056 157.835 146.868 157.894L147.243 157.024C151.11 164.137 143.342 174.634 134.919 172.389L135.748 171.767C135.746 172.222 135.723 172.675 135.681 173.123C135.506 174.95 134.966 176.107 134.903 176.348C134.738 176.88 134.741 177.261 134.306 178.318C133.059 181.918 128.382 185.666 124.492 185.212C123.231 185.189 121.664 184.876 120.324 184.336L121.394 183.634C121.416 184.306 121.363 184.947 121.259 185.512C121.151 187.04 119.272 189.995 118.798 190.428C118.561 190.741 118.514 190.949 118.181 191.287ZM146.314 164.559C146.354 164.696 146.557 164.195 146.651 163.75C146.747 163.306 146.756 162.936 146.617 163.354C146.566 163.543 146.304 164.491 146.314 164.559ZM89.678 133.082C89.7334 133.075 89.7859 133.076 89.8401 133.073C89.9375 132.759 90.0414 132.428 90.1346 132.126C90.0422 132.285 89.946 132.454 89.8529 132.615C89.8008 132.754 89.7301 132.942 89.678 133.082Z" fill="white"/>
<path d="M180.918 155.241C180.957 155.221 181.03 155.271 181.081 155.264C181.292 155.234 181.378 155.262 181.572 155.247C181.859 155.224 182.669 154.965 182.763 155.405C182.763 155.405 182.763 155.405 182.763 155.405C182.764 155.41 182.765 155.414 182.765 155.418C182.78 155.503 182.729 155.61 182.739 155.707C182.749 155.804 182.888 156.416 182.795 156.471C182.659 156.548 182.278 156.465 182.202 156.488C182.15 156.504 182.097 156.574 182.032 156.598C181.82 156.676 181.698 156.66 181.533 156.853C181.438 156.79 181.342 156.727 181.247 156.664C181.152 156.723 180.974 156.651 180.913 156.67C180.863 156.686 180.847 156.755 180.794 156.769C180.735 156.786 180.629 156.737 180.522 156.771C180.348 156.825 180.351 156.996 180.249 157.04C180.142 157.085 179.951 157.033 179.822 157.121C179.808 157.142 179.794 157.164 179.78 157.186C179.802 157.224 179.823 157.263 179.845 157.301C179.778 157.335 179.729 157.258 179.663 157.27C179.586 157.285 179.563 157.373 179.512 157.383C179.469 157.392 179.398 157.341 179.344 157.356C179.265 157.379 179.302 157.467 179.262 157.494C179.247 157.504 178.939 157.623 178.921 157.627C178.785 157.66 178.746 157.537 178.635 157.549C178.326 157.583 178.038 157.751 177.766 157.849C177.645 157.893 177.513 157.913 177.385 157.92C177.512 157.555 177.025 157.397 177.294 157.867C177.141 157.825 177.071 157.982 176.935 157.987C176.847 157.99 176.773 157.932 176.653 157.96C176.438 158.01 176.245 158.259 176.107 157.912C175.868 158.03 175.621 157.946 175.598 158.283C175.537 158.316 175.33 158.162 175.251 158.152C175.177 158.143 174.628 158.17 174.541 158.184C174.453 158.198 174.3 158.225 174.233 158.268C174.149 158.322 174.155 158.665 173.909 158.315C173.726 158.387 173.656 158.39 173.47 158.383C173.436 158.382 173.42 158.325 173.402 158.329C173.363 158.338 173.307 158.394 173.239 158.414C173.128 158.446 173.038 158.34 173.089 158.521C173.021 158.567 172.954 158.614 172.886 158.661C172.852 158.631 172.818 158.601 172.785 158.571C172.753 158.618 172.721 158.665 172.69 158.712C172.68 158.436 172.433 158.653 172.557 158.786C172.4 158.762 172.244 158.738 172.088 158.714C172.044 158.407 171.764 158.746 171.827 158.905C171.811 158.908 171.794 158.911 171.777 158.914C171.616 158.865 171.497 158.959 171.309 158.943C171.121 158.926 171.131 158.893 171.048 158.766C171.008 158.783 170.969 158.799 170.929 158.816C170.792 159.244 170.69 158.576 170.38 158.947C170.21 158.733 169.943 158.922 169.764 159.036C169.743 159.049 169.752 159.096 169.725 159.116C169.659 159.167 169.458 159.147 169.496 159.295C169.422 159.266 169.347 159.236 169.273 159.207C169.226 159.246 169.178 159.284 169.131 159.323C169.141 159.37 169.151 159.416 169.161 159.463C169.02 159.326 168.865 159.424 168.774 159.403C168.755 159.399 168.738 159.335 168.683 159.328C168.618 159.32 168.51 159.363 168.435 159.358C168.422 159.436 168.409 159.513 168.397 159.591C168.277 159.657 168.192 159.478 168.113 159.479C168.099 159.479 167.855 159.546 167.843 159.552C167.741 159.608 167.806 159.762 167.483 159.795C167.426 159.8 167.369 159.754 167.317 159.763C167.227 159.778 166.984 159.962 166.988 160.083C166.848 159.96 166.57 160.082 166.475 160.058C166.447 160.05 166.421 159.959 166.337 159.956C166.269 159.953 166.119 160.063 166.035 160.068C165.945 160.073 165.898 160.001 165.858 160.004C165.82 160.007 165.8 160.077 165.749 160.087C165.593 160.119 165.43 160.047 165.306 160.072C165.127 160.107 165.009 160.327 164.877 160.442C164.838 160.437 164.793 160.405 164.754 160.413C164.272 160.51 163.722 160.591 163.232 160.654C163.004 160.683 162.393 160.548 162.632 160.939C162.57 161.03 161.968 160.98 161.86 161C161.752 161.021 161.683 161.115 161.598 161.134C161.344 161.192 161.153 161.175 160.856 161.307C160.78 161.342 160.713 161.45 160.665 161.459C160.608 161.47 160.528 161.396 160.452 161.406C160.273 161.431 159.95 161.53 159.777 161.551C159.746 161.555 159.719 161.481 159.669 161.466C159.477 161.41 159.286 161.459 159.372 161.696C159.121 161.604 158.944 161.774 158.741 161.825C158.311 161.933 157.511 162.045 157.155 162.227C156.931 162.342 156.961 162.45 156.59 162.431C156.508 162.426 156.425 162.415 156.325 162.41C156.092 162.398 155.846 162.24 155.73 162.519C155.471 162.508 155.285 162.594 155.059 162.425C155.048 162.48 155.037 162.534 155.026 162.589C154.996 162.596 154.966 162.604 154.937 162.611C154.917 162.566 154.898 162.52 154.878 162.475C154.66 162.508 154.428 162.762 154.245 162.799C153.939 162.862 153.135 162.954 152.831 162.952C152.67 162.95 152.684 163.054 152.551 162.863C152.519 162.885 152.488 162.907 152.457 162.929C152.445 162.98 152.433 163.03 152.421 163.08C152.224 163.124 151.975 163.103 151.787 163.144C151.444 163.219 150.956 163.454 150.594 163.445C150.503 163.442 150.375 163.371 150.291 163.39C150.168 163.418 150.172 163.581 150.016 163.617C149.748 163.679 149.208 163.604 148.957 163.672C148.882 163.692 148.859 163.758 148.808 163.775C148.595 163.849 148.414 163.882 148.224 164.017C147.967 163.915 147.945 163.717 147.833 163.536C147.749 163.399 147.514 163.091 147.463 162.967C147.427 162.879 147.463 162.749 147.419 162.654C147.672 162.517 147.804 162.58 148.053 162.675C148.456 162.583 148.86 162.491 149.263 162.399C149.312 162.446 149.36 162.493 149.409 162.539C149.409 162.54 149.409 162.54 149.409 162.54C149.578 162.57 149.614 162.415 149.691 162.365C150.428 161.888 152.058 161.791 152.949 161.637C153.141 161.604 153.744 161.398 153.894 161.459C153.933 161.475 153.96 161.558 153.997 161.554C154.308 161.435 154.618 161.316 154.929 161.198C155.618 161.188 156.278 160.934 156.94 160.772C158.73 160.333 160.5 159.887 162.277 159.529C162.62 159.46 163.042 159.304 163.386 159.274C163.529 159.261 163.616 159.383 163.779 159.243C163.788 159.28 163.798 159.316 163.808 159.352C163.959 159.273 164.044 159.169 164.222 159.122C164.372 159.083 164.772 158.992 164.908 158.977C164.979 158.969 164.968 159.043 165.033 159.029C165.143 159.004 165.36 158.859 165.513 158.827C165.651 158.797 165.902 158.826 166.006 158.792C166.381 158.67 166.774 158.465 167.189 158.409C167.304 158.393 167.468 158.451 167.503 158.441C167.571 158.421 167.573 158.331 167.617 158.31C167.841 158.204 168.23 158.227 168.462 158.182C169.217 158.035 170.007 157.828 170.76 157.684C171.235 157.593 172.019 157.41 172.47 157.381C172.567 157.375 172.562 157.474 172.641 157.458C172.729 157.439 172.763 157.365 172.803 157.351C173.079 157.255 173.692 157.057 173.974 157.065C174.028 157.066 174.081 157.132 174.111 157.125C174.127 157.122 174.151 157.064 174.198 157.049C174.618 156.912 174.937 156.875 175.361 156.802C176.172 156.664 177.085 156.371 177.941 156.242C178.128 156.213 178.285 156.332 178.311 156.325C178.367 156.31 178.383 156.204 178.493 156.156C178.859 155.994 179.396 155.989 179.75 155.862C179.925 155.8 180.146 155.623 180.317 155.558C180.453 155.505 180.798 155.483 180.849 155.415C180.88 155.374 180.875 155.264 180.918 155.241ZM176.506 157.906C176.495 157.731 176.26 157.928 176.379 157.998C176.406 158.014 176.509 157.951 176.506 157.906ZM164.047 160.253C164.06 160.301 164.073 160.349 164.086 160.397C164.116 160.37 164.146 160.342 164.177 160.314C164.151 160.29 164.125 160.265 164.1 160.24C164.082 160.244 164.065 160.249 164.047 160.253Z" fill="white"/>
<path d="M76.7283 50.1334C77.0408 50.0735 77.4943 50.0697 77.8656 50.0164C79.4213 49.7938 80.0037 49.7503 81.413 49.5607C83.5027 49.2796 89.6748 48.25 89.7431 48.6954C89.7431 48.6954 89.7431 48.6954 89.7431 48.6954C89.7437 48.6998 89.7438 48.7043 89.7433 48.7089C89.7346 48.7971 89.2227 48.9701 89.1593 49.078C89.096 49.1859 89.2492 49.7967 88.5073 49.9458C87.431 50.1573 84.8079 50.3956 84.2312 50.4909C83.837 50.5561 83.3592 50.6868 82.8557 50.774C81.232 51.0552 80.3735 51.1442 78.9297 51.5215C78.3304 51.5306 77.7312 51.5396 77.132 51.5487C76.66 51.6446 76.0273 51.7083 75.5043 51.7613L74.7911 51.8654L75.0398 51.195C75.1645 50.8993 75.2731 50.6415 75.3319 50.4731C75.4592 50.1086 75.4758 49.8739 75.6104 49.4946C75.761 49.0692 76.0632 48.4415 76.3337 47.6663C76.6689 46.7062 76.7073 46.3102 76.8163 45.8435L76.9908 46.4907C76.8608 46.4062 76.7263 46.3122 76.5715 46.1897C75.9145 45.6701 74.9734 44.7653 74.1152 44.126C74.0005 44.0543 73.8857 43.9826 73.771 43.911C73.8179 44.0046 73.8647 44.0983 73.9116 44.192C73.486 43.8621 73.3633 43.6479 72.9847 43.3298C72.5392 42.9554 72.2592 42.8277 71.9589 42.5765C71.7129 42.3706 71.4209 42.0418 71.099 41.7785C70.63 41.3942 70.6714 41.5515 70.4096 41.3559C70.3053 41.2777 68.4244 39.7752 68.3197 39.6888C67.5246 39.0298 67.5382 38.8732 66.9133 38.3369C65.2194 36.8836 63.3985 35.4922 61.7796 34.1944L60.752 33.3242L61.94 32.7174C61.9826 32.6941 62.0252 32.671 62.0676 32.6479C62.8965 32.1972 63.7733 31.75 64.6175 31.3345C63.455 32.3105 66.4827 31.0264 65.1566 31.1337C65.4537 31.0048 65.7158 30.8714 65.9623 30.7355L65.5659 31.6674C65.3728 31.0675 65.1534 30.5418 64.9748 29.8794C64.8079 29.2597 64.7508 28.8135 64.4895 27.9353C64.0256 26.3771 63.3268 24.7291 63.5472 24.1765C63.2945 23.4167 63.088 22.6901 62.896 22.0606L62.6027 21.0419L63.6321 21.2564C64.5271 21.4284 65.2444 21.5381 65.6732 21.4321C66.1596 21.5098 67.3578 21.9484 67.8937 22.0831C68.3407 22.1954 71.4341 22.8903 72.5983 23.1449L71.9777 23.4718C72.0426 23.326 72.0928 23.2125 72.1236 23.1416C72.3847 22.5406 72.8388 21.4872 73.0287 20.9682C73.2536 20.3553 73.1607 19.8078 73.8524 18.9282L74.1969 18.1346L74.8248 18.7169C74.8628 18.7766 74.9009 18.8397 74.9393 18.9065C76.0202 19.8513 76.39 20.2046 77.3445 21.1389C77.5173 21.3081 77.498 21.3696 77.6022 21.4649C77.8169 21.6611 78.2113 21.9631 78.598 22.3095C79.234 22.8791 79.5107 23.2986 79.5672 23.0957C80.0039 23.4522 80.4406 23.8087 80.8773 24.1651C80.9986 24.3251 81.1198 24.4851 81.2411 24.6451C81.4899 24.8189 81.7387 24.9928 81.9875 25.1667C81.5432 25.1288 83.2148 26.4394 82.8124 25.8603C82.9494 25.9991 83.0865 26.138 83.2235 26.2768L82.0712 26.9231C81.9456 26.0344 81.82 25.1458 81.6944 24.2572C82.0267 24.3477 81.2724 21.8987 81.1484 22.1413C81.1249 22.0187 81.1013 21.8961 81.0777 21.7735C80.9499 20.6849 80.6925 19.7124 80.4925 18.3941C80.2925 17.0759 80.3459 17.1929 80.4081 16.7681C80.3403 16.462 80.2725 16.1558 80.2048 15.8496C79.5086 14.3092 80.2262 14.4659 79.3956 11.7579C79.439 11.1695 79.2352 10.0919 78.9901 9.01749L78.8659 8.35941L79.4417 8.69488C80.0066 8.99604 80.5799 9.28595 81.062 9.53188C81.2147 9.60977 81.2409 9.57003 81.4458 9.67102C81.9464 9.91843 83.1486 10.6806 83.1829 10.5235C83.5874 10.8075 83.992 11.0914 84.3966 11.3754C84.7592 11.5519 85.1219 11.7284 85.4845 11.9049C85.5066 11.8624 85.5287 11.82 85.5508 11.7775C85.6506 11.8651 85.7636 11.9536 85.8851 12.0419L85.0265 12.2974C85.4543 11.6389 85.8644 10.746 86.1323 10.2909C86.196 10.183 86.2671 10.1889 86.4591 9.85068C86.6838 9.45556 87.0497 8.6924 87.3131 8.21937C87.3432 7.99872 87.3733 7.77807 87.4034 7.55742C87.8063 6.67686 88.1325 6.46107 88.4032 5.96134C88.4519 5.87131 89.2849 4.20114 89.3268 4.10963C89.6706 3.36089 89.4184 3.49433 90.5283 1.38761C90.5678 1.31258 90.6077 1.24135 90.6476 1.17269L91.252 -4.66108e-05L91.8065 1.18886C91.9261 1.48315 92.013 1.75265 92.1425 2.0305C92.4285 2.64415 93.418 4.43266 93.5944 4.52662C93.8109 5.3326 94.8061 7.29212 95.044 7.89544C95.1156 8.07763 95.0486 8.15815 95.2872 8.70937C95.4805 9.15628 96.0856 10.2565 96.3382 10.8198C96.6061 11.4179 96.634 11.6635 96.7545 11.9313C96.818 12.0721 96.8981 12.1977 96.9845 12.3403L96.208 12.0973C96.3156 12.0197 96.4337 11.9373 96.5789 11.854C97.6026 11.2675 98.5804 10.8246 99.3896 10.3612C100.547 9.69863 101.477 8.94849 102.402 8.31667L103.767 7.54147L103.503 9.08037C103.502 9.09287 103.501 9.10536 103.5 9.11784C103.442 9.39211 103.357 9.65689 103.308 9.94653C102.709 13.5291 102.005 17.5659 101.37 21.1535C101.076 22.819 100.133 26.926 100.743 25.8891C100.738 26.0391 100.678 26.4197 100.589 26.9176L99.2813 26.2277C100.37 25.2092 102.269 23.5247 102.709 23.1061C103.297 22.5457 103.709 22.044 104.169 21.6013C105.271 20.5415 106.14 19.7569 107.274 18.6434L108.041 17.919L108.443 18.883C108.61 19.2624 108.792 19.6667 108.995 20.1079C109.248 20.6586 109.587 21.2201 109.727 21.5508C109.895 21.9491 109.995 22.4119 110.209 22.9294C110.268 23.0706 110.333 23.2254 110.402 23.3907L109.548 22.9423C110.909 22.6681 112.944 22.2307 114.057 22.017C114.287 21.9731 114.383 22.0331 114.716 21.99C116.011 21.8226 117.439 21.5223 117.136 21.3301C117.569 21.2792 117.99 21.2121 118.403 21.1351L119.667 20.8855L119.282 22.1047C118.911 23.239 118.642 24.3524 118.31 25.4477C117.813 27.0889 117.077 29.4301 116.384 31.6828L115.98 30.7172C117.43 31.4694 118.842 32.1943 119.974 32.7536L121.105 33.3515L120.13 34.1608C119.837 34.4182 119.568 34.657 119.331 34.8721C117.999 36.0798 118.106 36.1356 116.021 37.7657C115.558 38.1275 115.092 38.482 114.531 38.9212C113.215 39.9506 111.911 40.7792 111.098 41.7889C109.638 42.9338 108.538 43.9199 107.349 44.6433C107.257 44.7868 107.166 44.9302 107.075 45.0737C106.902 45.2211 106.729 45.3684 106.556 45.5158C106.47 45.5243 106.385 45.5328 106.299 45.5412C105.924 45.852 105.531 46.2026 105.136 46.5651L105.333 45.796C105.837 46.9458 106.399 48.1261 106.747 49.0272C106.945 49.538 107.212 50.2409 107.515 51.0438L108.034 52.4103L106.607 52.1486C103.89 51.6431 100.097 50.915 98.4591 50.5748C97.3195 50.3381 97.2397 50.4298 96.621 50.1031C96.3622 50.0725 96.1033 50.0419 95.8445 50.0113C95.676 50.0291 95.5075 50.0469 95.3389 50.0648C94.2886 49.8806 93.1052 49.6342 92.0043 49.4185L92.7937 48.7389C92.7969 49.1872 92.8023 49.6217 92.8129 50.0276C92.8809 52.6178 93.1098 56.504 93.0919 59.1073C93.0873 59.7601 93.0116 60.5779 93.0291 61.2165C93.0545 62.146 93.2206 62.3678 93.2539 63.5474C93.2556 63.6053 93.2571 63.6646 93.2585 63.7253L93.2726 64.5027L92.5063 64.497C91.759 64.495 90.8088 64.4709 89.8116 64.4415L89.1095 64.4362L89.1147 63.7446C89.1668 61.9794 89.2352 60.0671 89.2264 58.8737C89.2223 58.3028 89.1626 58.0364 89.1562 57.6422C89.1288 55.9891 89.1337 54.6319 89.0414 53.0468C89.1952 51.3448 89.3936 51.4918 89.5938 50.9644C89.7449 50.5646 90.0951 49.3389 90.2275 49.1649C90.3205 49.0427 90.4401 49.499 90.5424 49.3277C90.6242 51.3669 90.5342 52.2236 90.3902 53.8794C90.3959 56.9372 90.4017 59.995 90.4074 63.0529C90.3611 63.2834 90.3148 63.514 90.2685 63.7446L89.8116 63.2877C89.8592 63.2972 89.9069 63.3068 89.9545 63.3164C89.9545 63.3165 89.9545 63.3166 89.9545 63.3167C91.1288 63.3812 91.6265 63.2373 92.2598 63.2047C92.3409 63.2005 92.4231 63.1964 92.5063 63.1924L91.9543 63.7588C91.6794 60.0279 91.549 54.2265 91.4587 48.7732L91.432 47.9674L92.2367 48.1034C95.6782 48.7438 98.9761 49.3718 101.509 49.8331C102.503 50.014 105.077 50.4326 106.853 50.7563L106.197 51.5547C105.924 50.8391 105.711 50.2552 105.629 49.9713C105.559 49.7245 105.614 49.6271 105.519 49.3722C105.087 48.3236 104.655 47.2749 104.223 46.2263L104.091 45.8925L104.369 45.6542C105.342 44.7993 106.315 43.9443 107.288 43.0894C111.195 39.9748 115.074 36.5644 118.91 33.3071C119.007 33.2244 119.105 33.1417 119.202 33.059L119.31 34.0317C117.98 33.3473 116.651 32.6638 115.323 31.981L114.876 31.7526L115.023 31.2628C115.996 28.0641 116.966 24.873 117.935 21.6892L118.685 22.5155C115.73 23.1309 112.781 23.7438 109.837 24.3534L109.3 24.4672L109.077 23.9547C108.431 22.4475 107.786 20.9415 107.143 19.4365L108.252 19.664C105.599 22.2145 102.949 24.7566 100.299 27.2894L98.8065 28.7298L99.1385 26.6775C99.1739 26.4651 99.2094 26.2527 99.2449 26.0404C99.6716 23.4874 100.144 20.2363 100.599 17.7431C100.789 16.7025 100.997 16.2904 101.122 14.9029C101.162 14.8946 101.201 14.8863 101.24 14.878C101.393 13.6745 101.436 12.8962 101.65 11.5538C101.743 10.9701 101.918 9.89093 102.091 8.84655L103.116 9.55777C102.257 10.0526 101.423 10.5299 100.995 10.7679C100.537 11.0234 100.672 10.8656 100.248 11.1098C99.5225 11.5285 98.0197 12.5043 97.0182 13.0806C96.9594 13.1144 96.8979 13.1493 96.8341 13.1854L96.1827 13.5667L95.85 12.8774C95.4048 11.9161 94.7862 10.4472 94.4543 9.77149C93.2117 7.2408 91.7981 4.5204 90.532 1.79227L91.9048 1.81143C91.8658 1.88661 91.8268 1.9617 91.7878 2.03668C91.3932 2.79325 90.8156 3.73071 90.6968 3.97005C90.4651 4.43773 90.4729 4.61608 90.3241 4.93375C89.5683 6.54717 88.2179 8.97475 87.4235 10.5291C87.0229 11.3129 86.6198 12.1044 86.2149 12.9013L85.881 13.5709L85.2203 13.1973C83.1442 12.0027 81.0309 10.7937 78.9274 9.58863L80.0023 8.82081C80.487 11.2904 80.9679 13.7493 81.4262 16.1442C81.9715 18.994 82.8304 23.3691 83.4371 26.6576L83.8457 28.7203L82.2847 27.3039C81.7142 26.7725 81.1898 26.2803 80.7372 25.8497C80.221 25.3585 80.426 25.4157 79.9845 25.0122C79.4949 24.5648 79.186 24.3703 78.9537 24.1651C77.789 23.1366 75.6112 21.2027 73.9477 19.6765L75.0487 19.4373C74.7105 20.2279 74.4033 20.9284 74.1677 21.4353C74.0049 21.7853 73.826 22.0134 73.7358 22.226C73.69 22.3336 73.6338 22.5968 73.4949 22.9365C73.3538 23.2818 73.2163 23.6161 73.0815 23.9416L72.8814 24.4215L72.3615 24.3209C69.7007 23.8121 67.5746 23.3582 64.8228 22.7881C64.3488 22.6899 63.8687 22.5914 63.3832 22.4924L64.1052 21.7036C64.9978 24.753 65.9787 28.0034 66.9517 31.2582L67.1056 31.7653L66.6286 32.0177C65.2999 32.714 63.97 33.409 62.654 34.0912L62.7719 33.0059C63.7032 33.785 64.6232 34.5589 65.5226 35.3223C66.5841 36.223 67.2215 36.9492 67.3727 37.0735C67.7044 37.3464 67.9797 37.4458 68.6634 37.9843C70.9361 39.7757 73.8583 42.3545 76.0026 44.0791C76.5352 44.5076 77.1831 44.9986 77.8286 45.4871L78.2167 45.8062L78.045 46.2899C77.8079 47.0544 77.5722 47.8158 77.3582 48.4457C77.1009 49.2034 76.5269 50.7138 76.2088 51.6197L75.3164 50.5318C75.6343 50.4796 75.8787 50.4348 75.9942 50.403C76.2739 50.3261 76.3892 50.1989 76.7283 50.1334ZM64.2934 26.9755C64.5134 27.1089 63.8089 25.2313 63.9322 25.9773C63.96 26.1453 64.2363 26.941 64.2934 26.9755ZM102.215 14.6928C102.267 14.6828 102.319 14.6728 102.371 14.6628C102.393 14.4004 102.416 14.1379 102.438 13.8755C102.385 14.0163 102.331 14.157 102.278 14.2977C102.257 14.4294 102.236 14.5611 102.215 14.6928Z" fill="white"/>
</svg>