<svg xmlns="http://www.w3.org/2000/svg" width="186" height="217" viewBox="0 0 186 217" fill="none">
<path d="M100.326 88.2787C100.357 88.3359 100.32 88.4395 100.338 88.5115C100.407 88.8151 100.389 88.9368 100.42 89.2145C100.49 89.6191 100.644 90.8443 100.176 90.8379C100.176 90.8379 100.176 90.8379 100.176 90.8379C100.172 90.8379 100.167 90.8378 100.163 90.8375C100.077 90.833 99.9828 90.7361 99.8853 90.7238C99.7879 90.7116 99.162 90.7291 99.1232 90.6098C99.075 90.4377 99.1951 89.9995 99.1718 89.9033C99.1583 89.839 99.0903 89.7683 99.0665 89.6883C98.9891 89.4327 98.998 89.2835 98.7885 89.0942C98.843 88.9821 98.8948 88.8675 98.9435 88.7502C98.8702 88.6404 98.9077 88.4239 98.8736 88.3519C98.8463 88.2936 98.7727 88.2823 98.7453 88.2224C98.7142 88.1557 98.7341 88.0227 98.6676 87.9033C98.5578 87.7083 98.3881 87.7499 98.3096 87.6456C98.228 87.5381 98.2027 87.3093 98.0596 87.1947C98.0324 87.1864 98.0053 87.1783 97.9781 87.1704C97.9512 87.2059 97.9242 87.2413 97.8969 87.2765C97.8353 87.2162 97.8871 87.1389 97.8444 87.073C97.794 86.9955 97.7003 87.0044 97.665 86.9547C97.6361 86.914 97.6479 86.8202 97.6045 86.7704C97.5416 86.6979 97.4801 86.7727 97.435 86.744C97.4186 86.7302 97.1387 86.4806 97.1227 86.4679C97.0132 86.3536 97.0967 86.2551 97.0141 86.1546C96.7827 85.8765 96.4321 85.7149 96.1474 85.5558C96.0197 85.484 95.8995 85.3929 95.7878 85.2977C96.1664 85.1468 95.8522 84.6465 95.7499 85.191C95.6479 85.0424 95.4769 85.1056 95.3536 85.0134C95.273 84.9538 95.2431 84.8578 95.1121 84.798C94.876 84.6903 94.5505 84.785 94.6055 84.4144C94.299 84.3718 94.0743 84.1746 93.8904 84.4634C93.8139 84.4638 93.6633 84.2318 93.5805 84.1898C93.5074 84.1423 92.878 83.97 92.7696 83.9658C92.6633 83.9529 92.4777 83.9402 92.3874 83.968C92.3507 83.9788 92.3175 84.0216 92.2832 84.0612C92.2105 84.1441 92.1394 84.2121 91.9949 83.9514C91.7632 83.9942 91.6827 83.9898 91.4608 83.9686C91.4207 83.9651 91.409 83.9077 91.3859 83.9106C91.3382 83.9167 91.2644 83.9703 91.1813 83.989C91.0453 84.0195 90.9442 83.9148 90.9945 84.0962C90.9115 84.144 90.8291 84.1936 90.7489 84.2445C90.7101 84.2162 90.6708 84.1883 90.6312 84.1608C90.5935 84.2108 90.5566 84.2611 90.5205 84.3117C90.5047 84.033 90.2162 84.2827 90.3684 84.4011C90.1873 84.3962 90.0039 84.399 89.8185 84.4099C89.7296 84.1102 89.4401 84.5261 89.5457 84.6659C89.5275 84.6737 89.5093 84.6816 89.4911 84.6896C89.2982 84.6876 89.1833 84.819 88.9707 84.8739C88.757 84.9314 88.7598 84.8974 88.629 84.8098C88.5887 84.8438 88.5489 84.8782 88.5095 84.913C88.5017 85.3854 88.153 84.797 87.9556 85.3231C87.6853 85.2214 87.4756 85.5688 87.3566 85.7925C87.3423 85.8185 87.3753 85.8528 87.359 85.8896C87.3185 85.9779 87.1139 86.1067 87.2329 86.2048C87.1465 86.2333 87.0601 86.2639 86.9737 86.2967C86.9518 86.3651 86.9311 86.4336 86.9116 86.502C86.949 86.5318 86.9865 86.5616 87.0239 86.5914C86.8147 86.5896 86.739 86.7949 86.6495 86.855C86.6314 86.8671 86.5748 86.8324 86.5235 86.8749C86.463 86.9244 86.4025 87.0513 86.3378 87.1162C86.3813 87.1845 86.4256 87.252 86.4706 87.3187C86.4253 87.4707 86.2317 87.4227 86.173 87.4978C86.1611 87.5106 86.0332 87.7885 86.0312 87.8058C86.0038 87.9422 86.1623 87.9739 85.9846 88.3102C85.9536 88.3704 85.8807 88.4015 85.857 88.4589C85.8125 88.5602 85.8353 88.9123 85.9451 88.9679C85.7632 89.0484 85.7393 89.4033 85.6793 89.4949C85.6603 89.5226 85.5652 89.5106 85.5278 89.6024C85.4966 89.6775 85.5406 89.8888 85.5166 89.9849C85.4901 90.0874 85.4072 90.1177 85.3968 90.1644C85.3873 90.2089 85.4478 90.2558 85.4428 90.3165C85.4263 90.5065 85.3175 90.6755 85.3154 90.8308C85.3154 90.8332 85.3154 90.8355 85.3154 90.8379C85.3166 91.0594 85.5139 91.2428 85.6121 91.4101C85.6035 91.4551 85.5668 91.502 85.5713 91.5487C85.6229 92.1243 85.7423 92.7685 85.9206 93.3291C85.99 93.5873 86.0785 94.3198 86.377 93.9543C86.4778 94.0018 86.6793 94.6653 86.7632 94.7716C86.8368 94.8791 86.9608 94.9138 87.0239 94.9919C87.2159 95.2261 87.3182 95.4286 87.6305 95.6403C87.7116 95.6945 87.8485 95.6955 87.8889 95.7332C87.9375 95.7788 87.9338 95.8936 87.9979 95.9548C88.1494 96.102 88.4816 96.3113 88.6428 96.4315C88.6719 96.454 88.6404 96.5266 88.6726 96.5758C88.798 96.7686 89.0125 96.8758 89.095 96.6371C89.257 96.8876 89.5379 96.8783 89.7613 96.9618C90.2297 97.1558 91.1318 97.4325 91.5864 97.3597C91.8698 97.319 91.8634 97.2121 92.2654 97.3149C92.2713 97.3163 92.2772 97.3177 92.2832 97.3192C92.3677 97.34 92.4535 97.3653 92.5569 97.385C92.8136 97.4349 93.0854 97.6133 93.2469 97.3382C93.5429 97.3594 93.7538 97.2659 94.0184 97.4164C94.0306 97.3605 94.0422 97.3046 94.0531 97.2487C94.0871 97.238 94.121 97.2271 94.1547 97.2159C94.179 97.2594 94.2035 97.3029 94.2282 97.3463C94.4852 97.2846 94.7219 96.9824 94.9154 96.8984C95.2516 96.7738 96.0914 96.3654 96.4008 96.1883C96.5691 96.1013 96.5083 96.0147 96.7284 96.11C96.7511 96.0713 96.7733 96.0325 96.7951 95.9937C96.784 95.9411 96.7724 95.8887 96.7603 95.8366C96.9345 95.6789 97.1849 95.5307 97.3361 95.3597C97.6184 95.0498 97.8716 94.4776 98.1423 94.1616C98.212 94.0827 98.359 94.013 98.4046 93.9199C98.4704 93.7841 98.3416 93.6833 98.4139 93.5129C98.5418 93.2251 98.9083 92.7079 98.9597 92.3959C98.9764 92.3051 98.9268 92.2504 98.9331 92.1876C98.9577 91.9247 98.9933 91.7087 98.9247 91.4513C99.1 91.1976 99.2935 91.2264 99.4983 91.1479C99.6529 91.0896 100.007 90.8768 100.138 90.8418C100.232 90.8186 100.351 90.9054 100.453 90.8734C100.531 91.2672 100.427 91.4353 100.252 91.7299C100.194 92.3045 100.074 92.8738 99.8931 93.4238C99.8232 93.4557 99.7533 93.4864 99.6832 93.5157C99.6831 93.5157 99.683 93.5156 99.6829 93.5156C99.5479 93.697 99.646 93.8338 99.6297 93.957C99.5297 95.1879 97.832 96.9131 96.7303 97.5034C96.5102 97.6584 95.7625 98.1485 95.5493 98.1309C95.4957 98.129 95.4489 98.0554 95.4011 98.072C95.0078 98.2976 94.5907 98.4909 94.1556 98.6475C93.5319 98.7061 92.9138 98.7968 92.2832 98.8251C91.9551 98.8398 91.6277 98.8376 91.3033 98.8052C88.734 98.5689 86.3212 96.9821 85.1279 94.7002C84.8934 94.2657 84.5892 93.7033 84.4893 93.2224C84.4475 93.0222 84.5578 92.9072 84.3967 92.6753C84.4324 92.6642 84.4681 92.6531 84.5038 92.642C84.4094 92.4294 84.2976 92.3009 84.2495 92.0439C84.2047 91.8302 84.1504 91.2496 84.165 91.0573C84.1698 90.9569 84.2402 90.993 84.2388 90.9002C84.2385 90.8817 84.237 90.8608 84.2346 90.8379C84.2153 90.6639 84.1508 90.3729 84.1676 90.1764C84.182 89.9762 84.305 89.6517 84.3202 89.4999C84.3685 88.9524 84.4162 88.3253 84.6704 87.7806C84.7398 87.6303 84.9092 87.4745 84.9285 87.428C84.9657 87.3358 84.8999 87.2709 84.9198 87.2049C85.0192 86.8671 85.3846 86.4545 85.581 86.1859C86.2112 85.296 87.0413 84.4559 87.9796 83.8962C88.5595 83.5258 89.6207 83.0647 90.2556 82.9879C90.3908 82.9684 90.3783 83.0706 90.4879 83.0449C90.6094 83.0171 90.6635 82.9403 90.72 82.9237C91.074 82.8109 91.851 82.6724 92.2832 82.7211C92.327 82.7251 92.367 82.7305 92.4025 82.7371C92.4762 82.7509 92.527 82.8278 92.5703 82.829C92.5922 82.8298 92.6438 82.7802 92.7138 82.7787C93.332 82.7687 93.7803 82.8703 94.3594 83.0382C95.4649 83.3551 96.7295 83.9091 97.6101 84.7625C97.8027 84.9467 97.8256 85.181 97.8523 85.2049C97.911 85.2592 98.0191 85.2244 98.1505 85.3275C98.5926 85.6712 98.9522 86.3345 99.2527 86.7596C99.4052 86.9681 99.6832 87.2295 99.8149 87.457C99.9251 87.6369 100.052 88.1133 100.131 88.1835C100.181 88.226 100.292 88.2172 100.326 88.2787ZM95.0065 84.658C95.1044 84.5103 94.7513 84.5185 94.8273 84.6509C94.8438 84.6799 94.981 84.6956 95.0065 84.658ZM85.3993 92.3768C85.4469 92.3631 85.4946 92.3494 85.5423 92.3359C85.5129 92.2986 85.4839 92.2606 85.4552 92.2226C85.4308 92.252 85.4066 92.2822 85.3826 92.3123C85.3881 92.3339 85.3937 92.3554 85.3993 92.3768Z" fill="white"/>
<path d="M89.4447 169.704C89.4494 169.952 89.3744 170.3 89.3624 170.592C89.3116 171.815 89.2534 172.267 89.1955 173.373C89.1096 175.014 89.0522 179.888 88.6019 179.875C88.6018 179.875 88.6018 179.875 88.6018 179.875C88.5974 179.875 88.593 179.874 88.5885 179.873C88.5032 179.854 88.4216 179.436 88.3264 179.372C88.2311 179.308 87.6031 179.336 87.5851 178.746C87.5637 177.891 87.7843 175.849 87.7905 175.394C87.7947 175.082 87.7489 174.698 87.7504 174.299C87.7554 173.016 87.8167 172.346 87.6958 171.185C87.7909 170.726 87.8859 170.266 87.981 169.806C87.9609 169.201 88.0952 168.29 88.1 167.924C88.1039 167.623 88.0446 167.445 88.0507 167.132C88.0573 166.78 88.1427 166.242 88.1509 165.603C88.1647 164.554 88.002 164.363 87.999 163.734C87.996 163.081 88.1171 162.07 88.0823 161.236C88.0668 161.131 88.0513 161.026 88.0359 160.921C87.9919 160.995 87.9478 161.068 87.9038 161.142C87.8966 160.722 87.9876 160.545 88.0004 160.16C88.0156 159.707 87.941 159.473 87.9503 159.168C87.958 158.919 88.0331 158.582 88.0385 158.258C88.0467 157.786 87.9495 157.886 87.9394 157.632C87.9355 157.53 87.9384 155.654 87.9407 155.549C87.9605 154.745 88.0915 154.678 88.1215 154.037C88.2043 152.26 88.1536 150.432 88.1624 148.785C88.1663 148.05 88.1962 147.284 88.2382 146.552C88.5343 147.716 88.8657 145.17 88.3217 146.11C88.4189 145.297 88.2965 144.715 88.3427 143.944C88.3727 143.444 88.4544 143.101 88.4734 142.387C88.5066 141.121 88.3438 139.731 88.7221 139.377C88.7008 137.889 88.8718 136.606 88.5629 136.061C88.5543 135.677 88.7764 134.701 88.8152 134.272C88.8518 133.866 89.0304 130.75 89.0502 130.24C89.07 129.73 89.1015 128.837 89.0856 128.406C89.0661 127.865 88.7406 127.478 89.1623 126.529C89.1631 125.41 89.186 125.012 89.2622 123.974C89.276 123.786 89.335 123.767 89.3383 123.657C89.3449 123.431 89.313 123.044 89.3196 122.64C89.3304 121.975 89.4644 121.599 89.2745 121.667C89.2559 121.228 89.2372 120.789 89.2185 120.35C89.2593 120.197 89.3 120.045 89.3408 119.892C89.3081 119.656 89.2755 119.421 89.2429 119.185C89.5065 119.469 89.3944 117.815 89.2229 118.346C89.3039 117.498 89.385 116.65 89.4661 115.802C89.7714 115.93 89.5563 113.938 89.3835 114.1C89.3866 114.003 89.3897 113.905 89.3928 113.808C89.4998 112.959 89.4555 112.176 89.541 111.14C89.6264 110.105 89.6537 110.203 89.8049 109.892C89.8039 109.647 89.803 109.403 89.802 109.159C89.4501 107.866 90.1176 108.112 89.8831 105.91C90.1484 105.217 90.0704 103.486 90.0297 102.338C90.025 102.205 89.9775 102.201 89.9681 102.023C89.9456 101.588 90.039 100.483 89.8847 100.516C89.9402 100.134 89.9958 99.7521 90.0514 99.3701C90.0327 99.056 90.014 98.7418 89.9953 98.4277C89.9474 98.4279 89.8995 98.4281 89.8516 98.4283C89.8672 98.3745 89.8812 98.3181 89.8938 98.2595L89.9183 97.6295L90.5364 97.6355C91.1642 97.7513 92.0314 97.702 92.4786 97.7377C92.5759 97.7456 92.597 97.8116 92.8996 97.8296C93.2533 97.8509 93.9124 97.8314 94.3338 97.852C94.3809 97.831 94.4279 97.8101 94.4749 97.7891L94.9523 97.7937L94.9639 98.2615C95.02 98.3764 95.0761 98.4914 95.1323 98.6063C95.1979 99.3582 95.0141 99.6296 95.0144 100.072C95.0145 100.152 95.0785 101.605 95.0853 101.683C95.14 102.323 95.2981 102.135 95.3268 103.99C95.3318 104.32 95.2842 104.589 95.2922 104.888C95.3062 105.415 95.49 106.999 95.6134 107.119C95.4863 107.764 95.6063 109.472 95.5805 109.977C95.5725 110.13 95.4787 110.167 95.4746 110.635C95.4712 111.015 95.5809 111.988 95.5847 112.469C95.5885 112.979 95.515 113.164 95.5172 113.393C95.5194 113.609 95.5907 113.806 95.6004 114.1C95.6299 115.019 95.5549 115.854 95.578 116.58C95.6112 117.63 95.8339 118.551 95.9489 119.426C95.944 119.645 95.9105 119.86 95.918 120.089C96.0095 122.917 96.0843 126.108 96.1413 128.946C96.1679 130.263 96.0219 133.546 96.4238 132.658C96.5152 133.113 96.4558 136.446 96.475 137.078C96.4942 137.711 96.589 138.21 96.6072 138.707C96.6624 140.208 96.643 141.267 96.7734 143.091C96.8073 143.562 96.9165 144.065 96.9251 144.344C96.9352 144.681 96.8589 145.046 96.8683 145.482C96.8914 146.522 96.9874 148.457 97.0064 149.455C97.0097 149.637 96.934 149.704 96.9186 149.965C96.8584 150.982 96.9058 152.118 97.1477 151.908C97.0513 153.213 97.2216 154.411 97.271 155.615C97.3749 158.16 97.4768 162.801 97.6578 165.015C97.772 166.412 97.8823 166.372 97.8571 168.435C97.8515 168.893 97.8383 169.349 97.832 169.904C97.8168 171.206 97.6518 172.405 97.9344 173.387C97.9197 174.833 98.0051 175.981 97.8295 177.059C97.8848 177.184 97.9401 177.308 97.9955 177.433C98.0028 177.61 98.0102 177.786 98.0175 177.963C97.9709 178.02 97.9242 178.077 97.8775 178.134C97.9081 179.402 98.1633 181.004 98.1988 182.077C98.2586 183.876 98.3408 188.513 98.3341 190.221C98.3305 191.128 98.4362 191.173 98.2402 191.699C98.262 191.901 98.2839 192.103 98.3058 192.305C98.357 192.43 98.4082 192.556 98.4594 192.681C98.5014 193.843 98.4761 195.223 98.5151 196.33C98.5501 197.326 98.6247 198.567 98.6895 199.812L98.1168 199.138C99.376 199.367 100.638 199.607 101.636 199.85C101.776 199.885 101.925 199.927 102.077 199.972L102.623 200.086L102.617 200.631C102.581 201.031 102.532 201.459 102.533 201.815C102.534 202.54 102.695 202.716 102.698 203.635C102.699 204.072 102.686 204.614 102.666 205.2L102.659 205.928L101.945 205.921C100.408 205.87 98.5624 205.775 97.4784 205.785C97.0337 205.789 96.8262 205.849 96.5191 205.856C95.2314 205.883 94.1742 205.878 92.9394 205.97C91.6136 205.817 91.7281 205.618 91.3173 205.418C91.0059 205.267 90.0511 204.917 89.9155 204.784C89.8203 204.691 90.1758 204.572 90.0424 204.469C91.6308 204.388 92.2981 204.478 93.588 204.622C95.9699 204.616 98.3519 204.61 100.734 204.604C100.951 204.66 101.167 204.716 101.384 204.772C101.384 204.772 101.384 204.772 101.384 204.772C101.597 204.787 101.781 204.791 101.945 204.787L101.533 205.2C101.521 204.66 101.43 204.344 101.405 203.966C101.342 203.016 101.302 201.88 101.278 200.631L101.814 201.285C100.577 201.062 99.2291 200.8 97.8402 200.52L97.3053 200.418L97.2807 199.861C97.1441 195.686 97.0825 191.127 96.9967 188.027C96.9656 186.907 96.7647 183.267 96.8289 182.495C96.8457 182.296 96.9298 182.237 96.9263 182.025C96.8099 180.136 96.6935 178.247 96.5771 176.358C96.5768 172.465 96.3277 168.449 96.172 164.532C95.7506 153.934 95.3209 143.442 94.982 133.014C94.9166 130.999 94.7639 128.444 94.7375 126.47C94.7264 125.646 94.8528 125.298 94.7125 124.22C94.7493 124.208 94.7862 124.195 94.823 124.182C94.7455 123.24 94.64 122.64 94.5949 121.582C94.557 120.691 94.4702 118.333 94.4573 117.545C94.4503 117.137 94.5251 117.286 94.5117 116.906C94.4881 116.254 94.3438 114.864 94.3128 113.965C94.2847 113.15 94.3175 111.773 94.2843 111.147C94.1652 108.892 93.9616 106.438 93.9106 104.033C93.8967 103.368 93.9575 102.511 93.9478 102.303C93.9285 101.897 93.8367 101.779 93.816 101.506C93.7489 100.62 93.737 99.4138 93.7258 98.3042L94.4749 99.0279C93.8513 99.0126 93.2581 98.9982 92.7688 98.9967C92.0311 98.9944 91.2861 98.9936 90.5364 98.9938L91.2515 98.2993C91.1424 102.051 91.0534 105.923 90.9324 109.599C90.8407 112.384 90.7207 117.014 90.5794 119.585C90.5489 120.139 90.4572 119.988 90.4436 120.454C90.4285 120.97 90.4852 121.252 90.4834 121.493C90.4712 123.165 90.4289 126.854 90.3164 128.43C90.2948 128.73 90.2132 128.945 90.2082 129.125C90.2055 129.216 90.2509 129.423 90.2478 129.709C90.2204 132.234 90.1366 134.073 90.0466 136.545C89.8746 141.28 89.8096 146.77 89.6122 151.744C89.5693 152.827 89.3986 153.566 89.3957 153.719C89.3889 154.053 89.4827 154.27 89.4876 154.948C89.503 157.203 89.3074 160.233 89.2949 162.377C89.2886 163.436 89.3732 164.894 89.3708 165.937C89.3689 166.769 89.2616 168.733 89.3066 169.103C89.3337 169.328 89.439 169.435 89.4447 169.704ZM88.5792 141.63C88.748 141.783 88.6497 140.221 88.5397 140.803C88.5149 140.934 88.5354 141.59 88.5792 141.63ZM95.7453 123.884C95.7943 123.868 95.8432 123.852 95.8922 123.836C95.8646 123.632 95.8369 123.429 95.8093 123.225C95.7835 123.341 95.7578 123.457 95.732 123.573C95.7364 123.676 95.7409 123.78 95.7453 123.884Z" fill="white"/>
<path d="M103.891 96.7628C103.738 96.686 103.564 96.5072 103.393 96.4014C102.675 95.9577 102.429 95.7594 101.785 95.3478C100.831 94.7373 97.8979 93.0954 98.1278 92.7079C98.1278 92.7079 98.1278 92.7079 98.1278 92.7079C98.1301 92.7041 98.1327 92.7004 98.1355 92.6969C98.1895 92.6291 98.4831 92.6944 98.5691 92.6326C98.6551 92.5707 98.9478 92.0154 99.3148 92.1923C99.8446 92.4527 100.977 93.3116 101.25 93.4657C101.437 93.5711 101.694 93.6569 101.935 93.7883C102.712 94.2119 103.089 94.484 103.853 94.7578C104.086 94.9907 104.319 95.2236 104.551 95.4565C104.928 95.6363 105.415 96.0507 105.636 96.1746C105.817 96.2763 105.954 96.2828 106.141 96.3906C106.352 96.5111 106.636 96.761 107.021 96.977C107.651 97.3314 107.847 97.2523 108.231 97.4553C108.629 97.6658 109.184 98.1015 109.707 98.3435C109.779 98.3643 109.85 98.3851 109.921 98.4059C109.898 98.3436 109.876 98.2813 109.853 98.2189C110.111 98.3497 110.174 98.4869 110.402 98.6238C110.669 98.785 110.848 98.7964 111.029 98.904C111.177 98.9923 111.344 99.1676 111.538 99.2781C111.821 99.4394 111.808 99.3221 111.968 99.3964C112.031 99.4262 113.169 100.041 113.232 100.078C113.711 100.358 113.687 100.493 114.061 100.729C115.1 101.381 116.236 101.934 117.232 102.48C117.677 102.723 118.127 102.999 118.551 103.275C117.699 103.152 119.082 104.272 118.779 103.492C119.225 103.842 119.638 103.926 120.085 104.218C120.373 104.407 120.542 104.59 120.966 104.84C121.718 105.282 122.644 105.595 122.672 106.039C123.586 106.507 124.281 107.074 124.765 106.984C125.002 107.102 125.486 107.614 125.727 107.788C125.956 107.952 127.761 109.125 128.061 109.309C128.361 109.493 128.888 109.812 129.158 109.938C129.496 110.098 129.891 109.941 130.261 110.618C130.94 110.984 131.17 111.134 131.763 111.54C131.87 111.613 131.853 111.671 131.918 111.709C132.053 111.789 132.303 111.888 132.546 112.025C132.944 112.252 133.107 112.491 133.159 112.304C133.435 112.431 133.711 112.558 133.987 112.685C134.059 112.771 134.132 112.856 134.205 112.941C134.364 112.99 134.523 113.038 134.682 113.087C134.38 113.224 135.44 113.666 135.202 113.344C135.677 113.691 136.152 114.039 136.628 114.386C136.399 114.61 137.716 115.073 137.702 114.87C137.76 114.905 137.817 114.939 137.875 114.973C138.338 115.344 138.836 115.561 139.423 115.974C140.01 116.386 139.937 116.378 140.051 116.611C140.2 116.69 140.349 116.769 140.498 116.848C141.456 116.964 140.978 117.464 142.431 117.979C142.722 118.437 143.812 118.934 144.529 119.274C144.613 119.313 144.638 119.273 144.751 119.323C145.026 119.445 145.652 119.888 145.708 119.743C145.912 119.916 146.117 120.089 146.322 120.262C146.522 120.348 146.722 120.434 146.922 120.521C146.945 120.479 146.969 120.437 146.992 120.396C147.283 120.758 147.903 121.053 148.173 121.259C148.227 121.3 148.206 121.364 148.376 121.486C148.575 121.629 148.975 121.844 149.215 122.01C149.349 122.005 149.484 122 149.618 121.994C150.085 122.226 150.144 122.485 150.399 122.653C150.444 122.684 151.313 123.183 151.362 123.207C151.759 123.405 151.735 123.2 152.817 123.883C153.009 124.004 153.138 124.147 153.314 124.254C153.625 124.443 154.633 124.892 154.768 124.833C155.071 125.187 156.116 125.736 156.393 125.951C156.477 126.016 156.448 126.11 156.715 126.291C156.932 126.439 157.549 126.717 157.828 126.897C157.867 126.923 157.903 126.948 157.935 126.971L157.584 128.107C157.33 128.066 157.221 127.998 157.085 127.984C156.937 127.97 156.796 128.025 156.593 128.012C155.961 127.969 155.395 127.829 154.896 127.795C154.173 127.745 153.522 127.895 152.912 127.941C152.763 127.919 152.618 127.868 152.461 127.858C150.514 127.727 148.321 127.551 146.371 127.385C146.083 127.361 145.66 127.303 145.236 127.252L145.031 127.197C144.232 126.75 143.417 126.323 143.658 126.768C143.341 126.698 141.353 125.537 140.962 125.343C140.571 125.15 140.226 125.068 139.917 124.919C138.985 124.469 138.354 124.099 137.191 123.609C136.891 123.482 136.537 123.412 136.364 123.326C136.156 123.224 135.97 123.034 135.702 122.898C135.063 122.572 133.85 122.014 133.238 121.699C133.126 121.641 133.121 121.552 132.97 121.451C132.383 121.059 131.674 120.724 131.69 121.008C130.946 120.489 130.144 120.242 129.394 119.885C127.807 119.131 124.956 117.678 123.534 117.102C122.638 116.739 122.611 116.85 121.376 116.142C121.102 115.984 120.832 115.821 120.499 115.631C119.72 115.184 119.071 114.639 118.347 114.563C117.48 114.069 116.747 113.763 116.176 113.249C116.076 113.256 115.975 113.264 115.874 113.272C115.764 113.22 115.654 113.167 115.543 113.115C115.53 113.055 115.517 112.994 115.504 112.934C114.724 112.539 113.639 112.233 112.974 111.908C111.859 111.363 109.019 109.893 107.99 109.319C107.443 109.014 107.367 109.093 107.139 108.744C107.007 108.696 106.875 108.649 106.743 108.601C106.644 108.605 106.545 108.609 106.445 108.612C105.724 108.263 104.901 107.782 104.214 107.448C103.465 107.084 102.472 106.653 101.534 106.217L101.228 106.063L101.15 105.75C100.96 105.081 100.788 104.43 100.678 103.878C100.609 103.534 100.591 103.086 100.503 102.755C100.374 102.272 100.188 102.196 100.024 101.584C99.7405 100.529 99.4022 98.5144 99.1253 97.5198C99.0432 97.2244 98.949 97.1012 98.8889 96.8981C98.6361 96.0467 98.4551 95.3406 98.1489 94.541C98.0646 93.618 98.2766 93.6438 98.398 93.3188C98.4894 93.0727 98.6602 92.3469 98.7644 92.2228C98.8376 92.1357 99.0157 92.3421 99.0912 92.2271C99.4494 93.2652 99.4797 93.733 99.5671 94.6296C99.9912 96.216 100.415 97.8025 100.839 99.389C100.823 99.5477 100.808 99.7064 100.792 99.8651C100.791 99.8651 100.791 99.8652 100.791 99.8652C100.89 100.491 101.097 100.713 101.215 101.034C101.629 102.156 102.078 103.704 102.525 105.387L102.156 104.938C104.875 106.257 107.895 107.846 109.929 108.861C110.621 109.206 112.913 110.238 113.35 110.552C113.463 110.633 113.459 110.727 113.589 110.795C114.784 111.32 115.979 111.845 117.174 112.369C119.528 113.664 122.069 114.778 124.508 115.943C131.107 119.094 137.646 122.202 144.104 125.369C144.559 125.592 145.064 125.83 145.579 126.071L145.316 126.002C146.305 126.051 147.33 126.1 148.191 126.182C148.756 126.235 148.984 126.388 149.735 126.333C149.74 126.371 149.746 126.409 149.751 126.446C150.404 126.443 150.825 126.385 151.554 126.423C152.168 126.455 153.791 126.554 154.332 126.603C154.613 126.628 154.504 126.691 154.766 126.707C155.215 126.735 156.18 126.7 156.799 126.74C157.041 126.756 157.354 126.791 157.666 126.827L157.28 128.074C156.935 127.845 156.592 127.615 156.378 127.495C155.018 126.736 153.5 125.973 152.09 125.099C151.7 124.857 151.239 124.479 151.115 124.408C150.871 124.269 150.755 124.302 150.587 124.215C149.735 123.776 148.507 122.926 147.703 122.444C145.083 120.873 142.281 119.254 139.673 117.688C138.026 116.698 135.273 115.081 133.781 114.119C133.459 113.911 133.596 113.881 133.32 113.717C133.013 113.535 132.814 113.493 132.668 113.412C131.659 112.856 129.438 111.614 128.537 111.001C128.365 110.885 128.274 110.743 128.168 110.68C128.114 110.648 127.965 110.62 127.793 110.524C126.273 109.675 125.197 109.002 123.739 108.116C120.948 106.42 117.644 104.571 114.72 102.775C114.083 102.383 113.718 101.993 113.627 101.941C113.427 101.826 113.249 101.837 112.835 101.619C111.457 100.896 109.713 99.7366 108.416 99.0255C107.776 98.6742 106.849 98.2715 106.216 97.929C105.712 97.6555 104.572 96.9209 104.325 96.8391C104.174 96.7891 104.058 96.8458 103.891 96.7628ZM121.374 105.179C121.197 105.276 122.195 105.701 121.896 105.415C121.828 105.351 121.419 105.154 121.374 105.179ZM149.875 127.388C149.882 127.438 149.888 127.488 149.895 127.538C150.037 127.527 150.179 127.515 150.321 127.504C150.244 127.469 150.167 127.434 150.089 127.399C150.018 127.396 149.946 127.392 149.875 127.388Z" fill="white"/>
<path d="M94.234 75.6872C94.2246 75.8581 94.1302 76.0892 94.1017 76.2886C93.9816 77.1241 93.898 77.4288 93.7775 78.1832C93.5987 79.3018 93.2643 82.6464 92.8173 82.5903C92.8172 82.5903 92.8172 82.5903 92.8172 82.5903C92.8128 82.5897 92.8085 82.5888 92.804 82.5876C92.7203 82.5652 92.663 82.27 92.572 82.2158C92.4809 82.1617 91.8549 82.115 91.8706 81.7078C91.8979 81.1181 92.2334 79.7373 92.2655 79.425C92.2874 79.2114 92.2638 78.9422 92.288 78.6687C92.3659 77.7867 92.465 77.3326 92.4108 76.5224C92.5315 76.2162 92.6522 75.91 92.7729 75.6038C92.7873 75.1863 92.9726 74.5741 92.9983 74.3226C93.0193 74.1163 92.9704 73.9877 92.9944 73.7729C93.0209 73.5319 93.1364 73.1713 93.181 72.7326C93.2544 72.0133 93.1034 71.8647 93.1363 71.4318C93.1704 70.9828 93.3484 70.3003 93.3612 69.7236C93.3518 69.6499 93.3424 69.5762 93.333 69.5024C93.285 69.5484 93.2371 69.5943 93.1891 69.6403C93.2058 69.3511 93.3064 69.2385 93.3411 68.9751C93.3819 68.6653 93.3211 68.497 93.3477 68.2885C93.3695 68.1176 93.4634 67.894 93.4872 67.6719C93.5222 67.3481 93.4198 67.407 93.4242 67.231C93.4261 67.1608 93.5357 65.8718 93.5441 65.7994C93.6096 65.2487 93.7435 65.2168 93.8098 64.7795C93.9933 63.5663 94.0469 62.3041 94.1493 61.1735C94.195 60.6687 94.2684 60.1451 94.3518 59.6465C94.5799 60.4771 95.0543 58.7621 94.4599 59.351C94.6029 58.8026 94.5143 58.3898 94.6041 57.8641C94.6623 57.5241 94.7631 57.2964 94.8226 56.808C94.9277 55.9412 94.8449 54.9682 95.2411 54.7649C95.3046 53.7399 95.5477 52.8758 95.2716 52.4687C95.2849 52.204 95.5612 51.5561 95.6242 51.2653C95.6837 50.9902 96.0386 48.8668 96.0873 48.5183C96.136 48.1698 96.2181 47.5592 96.2268 47.2616C96.2383 46.8878 95.9366 46.5876 96.4099 45.979C96.4744 45.2102 96.5198 44.9392 96.6546 44.2336C96.679 44.1059 96.7388 44.0986 96.7483 44.0234C96.7678 43.8684 96.7581 43.5994 96.7876 43.3221C96.8362 42.8661 96.9909 42.6218 96.7981 42.6491C96.8046 42.3453 96.811 42.0414 96.8174 41.7376C96.8666 41.6369 96.9158 41.5362 96.965 41.4355C96.946 41.2702 96.9269 41.1049 96.9079 40.9397C97.1539 41.1619 97.1366 40.0133 96.9358 40.3603C97.0646 39.7859 97.1935 39.2116 97.3224 38.6372C97.6187 38.7569 97.5182 37.3651 97.3371 37.4585C97.3457 37.392 97.3543 37.3255 97.3629 37.259C97.5176 36.6868 97.5182 36.1436 97.6621 35.4406C97.806 34.7376 97.8275 34.808 97.9956 34.6099C98.0085 34.4418 98.0214 34.2738 98.0343 34.1057C97.758 33.1807 98.4077 33.4197 98.2998 31.8815C98.603 31.4325 98.624 30.2344 98.6488 29.4414C98.6517 29.3491 98.6048 29.3416 98.6055 29.2183C98.6079 28.917 98.7637 28.1668 98.6083 28.1736C98.6853 27.9168 98.7623 27.6601 98.8393 27.4033C98.8386 27.1854 98.8378 26.9675 98.8371 26.7496C98.7895 26.7448 98.7419 26.7399 98.6943 26.735C98.9104 26.3236 98.9334 25.6374 99.0142 25.3076C99.0304 25.242 99.0977 25.2358 99.1416 25.0311C99.1932 24.7918 99.2305 24.3385 99.2872 24.0528C99.2287 23.9316 99.1702 23.8104 99.1118 23.6892C99.1372 23.1687 99.3515 23.0115 99.4044 22.7107C99.4138 22.6565 99.5251 21.6603 99.5277 21.6062C99.5504 21.1634 99.3717 21.2672 99.5661 20.0029C99.6008 19.7778 99.6802 19.6022 99.7081 19.3983C99.7575 19.038 99.7661 17.935 99.6586 17.8346C99.8616 17.4157 99.9482 16.2375 100.034 15.8981C100.061 15.7957 100.158 15.784 100.218 15.4667C100.267 15.2094 100.275 14.5321 100.329 14.2048C100.337 14.1583 100.346 14.1159 100.354 14.0771L101.536 13.9456C101.599 14.1952 101.581 14.3216 101.622 14.4517C101.668 14.5935 101.775 14.7008 101.844 14.8918C102.057 15.4884 102.154 16.0633 102.323 16.5349C102.566 17.2171 102.963 17.754 103.248 18.2951C103.288 18.4407 103.3 18.5936 103.353 18.7421C104.01 20.5788 104.725 22.6603 105.351 24.5143C105.443 24.7882 105.56 25.1988 105.681 25.6085L105.713 25.8178C105.622 26.7292 105.556 27.6465 105.868 27.2484C105.93 27.5669 105.659 29.8526 105.638 30.2886C105.617 30.7246 105.68 31.0735 105.666 31.4163C105.626 32.4508 105.539 33.1767 105.553 34.4386C105.557 34.7645 105.634 35.1168 105.625 35.3093C105.613 35.5412 105.514 35.787 105.495 36.0872C105.452 36.8029 105.425 38.139 105.38 38.8255C105.372 38.9508 105.292 38.9916 105.26 39.17C105.135 39.8647 105.11 40.6483 105.365 40.5203C105.186 41.4099 105.28 42.2439 105.252 43.0742C105.194 44.8299 105 48.0243 105.04 49.5576C105.065 50.5244 105.177 50.5044 105.021 51.9197C104.986 52.2338 104.944 52.5462 104.902 52.9273C104.804 53.8205 104.563 54.6334 104.783 55.3267C104.676 56.3188 104.688 57.113 104.445 57.8421C104.492 57.9313 104.539 58.0204 104.586 58.1096C104.582 58.2316 104.578 58.3537 104.575 58.4757C104.524 58.5117 104.474 58.5476 104.424 58.5836C104.374 59.4568 104.526 60.5738 104.494 61.3133C104.439 62.5532 104.226 65.7437 104.11 66.9167C104.049 67.5395 104.151 67.5775 103.922 67.9258C103.931 68.0661 103.94 68.2063 103.949 68.3466C103.992 68.4359 104.035 68.5253 104.079 68.6147C104.046 69.4156 103.933 70.3625 103.902 71.1254C103.867 71.9571 103.868 73.0402 103.843 74.0743L103.824 74.4165L103.568 74.6128C103.031 75.0535 102.503 75.4711 102.041 75.7924C101.753 75.9927 101.349 76.1883 101.08 76.4018C100.689 76.7125 100.694 76.9136 100.198 77.3087C99.3439 77.9894 97.6321 79.1037 96.8308 79.7546C96.5927 79.9479 96.5174 80.0834 96.3552 80.2196C95.6754 80.7913 95.1004 81.2392 94.4895 81.8391C93.6769 82.2849 93.6159 82.0803 93.2695 82.0987C93.0073 82.1131 92.2737 82.2462 92.1183 82.2003C92.0092 82.168 92.1274 81.9222 91.9918 81.8989C92.8006 81.1561 93.2174 80.9416 94.0045 80.5035C95.2897 79.4813 96.575 78.4591 97.8602 77.4368C98.0121 77.3881 98.164 77.3393 98.3158 77.2906C98.3159 77.2907 98.316 77.2908 98.3161 77.2909C98.851 76.9506 98.9716 76.6721 99.2183 76.4357C100.082 75.6082 101.322 74.578 102.687 73.4967L102.422 74.014C102.546 70.9953 102.797 67.5922 102.916 65.3211C102.956 64.5496 102.987 62.0359 103.1 61.5102C103.13 61.3741 103.218 61.3396 103.227 61.1939C103.232 59.8885 103.236 58.5832 103.24 57.2778C103.487 54.6036 103.494 51.8284 103.588 49.1272C103.843 41.8191 104.082 34.5834 104.407 27.3981C104.43 26.8911 104.446 26.3339 104.462 25.7647L104.503 26.034C104.154 25.1077 103.789 24.1478 103.521 23.3262C103.344 22.7862 103.394 22.5166 103.043 21.8499C103.076 21.8299 103.108 21.8098 103.14 21.7898C102.877 21.1927 102.656 20.8302 102.4 20.1465C102.184 19.5708 101.626 18.043 101.455 17.5272C101.366 17.2598 101.467 17.3349 101.378 17.088C101.224 16.6654 100.807 15.7944 100.596 15.2107C100.513 14.9826 100.421 14.682 100.329 14.3815L101.627 14.2371C101.555 14.6446 101.48 15.0509 101.456 15.2956C101.303 16.8451 101.21 18.5421 100.971 20.1839C100.905 20.6374 100.742 21.2109 100.727 21.3536C100.697 21.6324 100.774 21.7262 100.761 21.9144C100.699 22.8704 100.409 24.3365 100.288 25.2661C99.894 28.2952 99.5285 31.5107 99.1333 34.5265C98.8836 36.4317 98.5008 39.6019 98.2141 41.3539C98.1522 41.7317 98.0696 41.6186 98.0295 41.9373C97.9852 42.2907 98.0255 42.4902 98.01 42.6559C97.9028 43.8037 97.6507 46.3354 97.4492 47.4064C97.4108 47.6104 97.3173 47.7501 97.3021 47.8733C97.2943 47.9355 97.3276 48.0827 97.3082 48.2789C97.1373 50.0116 96.9493 51.267 96.7192 52.957C96.2788 56.1936 95.9017 59.9606 95.4225 63.3586C95.3182 64.099 95.1065 64.5891 95.0948 64.6936C95.069 64.9229 95.15 65.0819 95.1163 65.5485C95.0033 67.1001 94.6364 69.1626 94.5019 70.6349C94.4355 71.3623 94.4366 72.3735 94.3749 73.0897C94.3257 73.6618 94.1072 75.0001 94.1309 75.2594C94.1451 75.4171 94.2437 75.5016 94.234 75.6872ZM94.9709 56.2983C95.13 56.4213 95.1212 55.3375 94.9786 55.7258C94.9466 55.8132 94.9296 56.2665 94.9709 56.2983ZM103.955 21.3004C103.998 21.2744 104.041 21.2483 104.084 21.2222C104.017 21.0966 103.95 20.9709 103.882 20.8453C103.881 20.93 103.88 21.0146 103.879 21.0993C103.904 21.1663 103.929 21.2334 103.955 21.3004Z" fill="white"/>
<path d="M77.8573 93.8491C78.0068 93.7656 78.2525 93.7218 78.4363 93.6392C79.2065 93.2938 79.5086 93.2014 80.2105 92.8997C81.2512 92.4524 84.2559 90.9459 84.4477 91.3536C84.4477 91.3536 84.4477 91.3537 84.4477 91.3537C84.4496 91.3577 84.4512 91.3618 84.4525 91.3662C84.4784 91.4489 84.2596 91.6553 84.2625 91.7612C84.2655 91.8671 84.5609 92.4209 84.2085 92.6255C83.6956 92.9179 82.3495 93.373 82.0684 93.513C81.8763 93.6087 81.6615 93.7726 81.4174 93.8985C80.6305 94.3044 80.1938 94.4636 79.5383 94.9428C79.215 95.0046 78.8917 95.0664 78.5685 95.1282C78.208 95.3394 77.5916 95.5102 77.3654 95.6231C77.1799 95.7157 77.0973 95.8258 76.903 95.9204C76.6853 96.0269 76.3187 96.1222 75.9242 96.3193C75.2773 96.642 75.2325 96.849 74.8491 97.0528C74.4515 97.2641 73.7796 97.4788 73.2855 97.7765C73.2283 97.8239 73.171 97.8713 73.1138 97.9186C73.1782 97.9346 73.2427 97.9505 73.3072 97.9665C73.0539 98.1071 72.9049 98.0823 72.6639 98.1939C72.3803 98.3251 72.2707 98.4665 72.0802 98.5556C71.9242 98.6286 71.685 98.6689 71.4847 98.7676C71.1924 98.9112 71.2969 98.9661 71.1458 99.0566C71.0854 99.0925 69.9378 99.6894 69.8721 99.7211C69.3718 99.9603 69.2732 99.8642 68.8682 100.042C67.7451 100.536 66.6499 101.166 65.6399 101.684C65.1889 101.916 64.7073 102.134 64.2414 102.33C64.8211 101.693 63.1184 102.209 63.9339 102.397C63.3941 102.569 63.0927 102.865 62.6005 103.07C62.2821 103.203 62.0358 103.239 61.5913 103.45C60.8027 103.825 60.0249 104.416 59.6412 104.19C58.7412 104.684 57.881 104.941 57.6848 105.392C57.4541 105.523 56.7588 105.636 56.4794 105.738C56.2151 105.835 54.2313 106.671 53.9107 106.816C53.5902 106.961 53.0304 107.219 52.7743 107.37C52.4523 107.561 52.3601 107.976 51.5927 107.902C50.9087 108.258 50.6553 108.365 49.9871 108.629C49.8661 108.676 49.828 108.63 49.7593 108.662C49.618 108.728 49.3959 108.88 49.1458 109.004C48.7345 109.207 48.4454 109.207 48.5715 109.355C48.3114 109.512 48.0512 109.669 47.7911 109.826C47.6797 109.838 47.5683 109.851 47.4569 109.863C47.3274 109.968 47.198 110.072 47.0685 110.177C47.1247 109.85 46.1635 110.479 46.5641 110.463C46.0099 110.661 45.4557 110.86 44.9014 111.058C44.844 110.744 43.7219 111.573 43.8976 111.676C43.8368 111.704 43.7761 111.733 43.7153 111.761C43.1491 111.936 42.6898 112.226 42.0189 112.481C41.348 112.735 41.396 112.679 41.1386 112.643C40.9897 112.722 40.8408 112.801 40.6919 112.88C40.0581 113.609 39.9125 112.932 38.6706 113.846C38.1291 113.83 37.1056 114.453 36.4222 114.856C36.3427 114.903 36.3615 114.947 36.257 115.012C36.0011 115.171 35.2839 115.441 35.3727 115.569C35.1146 115.641 34.8565 115.713 34.5984 115.785C34.4147 115.903 34.231 116.02 34.0472 116.137C34.0686 116.18 34.0899 116.223 34.1113 116.265C33.6481 116.303 33.056 116.65 32.7341 116.759C32.6701 116.78 32.6288 116.726 32.4324 116.799C32.2026 116.883 31.7997 117.094 31.5279 117.199C31.4568 117.313 31.3857 117.428 31.3145 117.542C30.8612 117.799 30.6137 117.702 30.3312 117.818C30.2804 117.839 29.3792 118.278 29.3321 118.305C28.9459 118.522 29.1292 118.618 27.957 119.13C27.7482 119.221 27.5573 119.248 27.3701 119.333C27.0393 119.484 26.1027 120.067 26.0755 120.212C25.6129 120.264 24.5711 120.821 24.2382 120.93C24.1377 120.963 24.0758 120.887 23.7755 121.005C23.5319 121.102 22.9551 121.457 22.6497 121.586C22.6063 121.605 22.566 121.62 22.5285 121.634L21.7854 120.706C21.9623 120.519 22.0791 120.467 22.1667 120.362C22.2621 120.247 22.2953 120.099 22.42 119.939C22.8101 119.44 23.2438 119.05 23.5522 118.656C23.9985 118.085 24.2398 117.463 24.5442 116.932C24.6462 116.821 24.7691 116.729 24.8661 116.605C26.0664 115.067 27.4429 113.35 28.6744 111.829C28.8562 111.604 29.1411 111.287 29.4221 110.965L29.5817 110.825C30.4007 110.415 31.2109 109.98 30.7076 109.929C30.9435 109.706 33.0199 108.713 33.3996 108.498C33.7792 108.282 34.0405 108.043 34.3372 107.871C35.233 107.352 35.8927 107.037 36.9514 106.35C37.2247 106.172 37.4812 105.919 37.6488 105.824C37.8507 105.709 38.1116 105.662 38.3751 105.516C39.0029 105.17 40.1464 104.479 40.7502 104.149C40.8606 104.089 40.9377 104.135 41.1055 104.066C41.7593 103.8 42.4347 103.402 42.1903 103.255C43.0379 102.931 43.6924 102.406 44.4086 101.985C45.9232 101.095 48.7258 99.5498 50.0001 98.6961C50.8036 98.1579 50.7265 98.0734 52.0059 97.4486C52.29 97.3099 52.5765 97.1783 52.9207 97.0097C53.7277 96.6147 54.5435 96.3835 55.0119 95.8273C55.9072 95.3867 56.5718 94.9517 57.3182 94.7676C57.3682 94.68 57.4183 94.5924 57.4684 94.5047C57.5736 94.4428 57.6788 94.3808 57.784 94.3189C57.8412 94.342 57.8985 94.3652 57.9557 94.3883C58.7203 93.9637 59.5824 93.2372 60.2248 92.8694C61.3018 92.2525 64.1115 90.726 65.1643 90.1961C65.7233 89.9147 65.7005 89.8077 66.1173 89.8149C66.231 89.7323 66.3448 89.6497 66.4585 89.5671C66.5109 89.4829 66.5633 89.3987 66.6158 89.3144C67.3097 88.9131 68.1701 88.5022 68.8317 88.1208C69.5528 87.705 70.4676 87.1252 71.3546 86.5929L71.654 86.4262L71.9567 86.5373C72.6165 86.7556 73.2519 86.9785 73.7703 87.1968C74.0938 87.3331 74.4749 87.5695 74.799 87.6823C75.2706 87.8465 75.4383 87.7354 76.0372 87.9427C77.0692 88.3002 78.9263 89.1505 79.905 89.4794C80.1956 89.5771 80.3504 89.5683 80.5522 89.6325C81.3988 89.901 82.0848 90.1473 82.9185 90.3425C83.7299 90.7907 83.5896 90.9517 83.7904 91.2345C83.9429 91.4482 84.4478 91.9969 84.492 92.1528C84.5231 92.2622 84.2523 92.2938 84.3051 92.4209C83.2449 92.1349 82.8406 91.8974 82.0495 91.4667C80.4983 90.9276 78.9471 90.3885 77.396 89.8494C77.2736 89.7471 77.1511 89.6449 77.0287 89.5426C77.0287 89.5425 77.0288 89.5424 77.0288 89.5423C76.4552 89.2724 76.1554 89.3195 75.8237 89.2375C74.6626 88.9506 73.1288 88.4537 71.4852 87.8789L72.0637 87.8256C69.4471 89.3362 66.4374 90.9443 64.455 92.0588C63.7817 92.4374 61.6411 93.7555 61.1364 93.9412C61.0056 93.9891 60.9296 93.9335 60.8012 94.003C59.696 94.6978 58.5909 95.3925 57.4858 96.0873C55.094 97.3087 52.7454 98.7871 50.4128 100.153C44.1021 103.847 37.8607 107.515 31.6156 111.084C31.1749 111.335 30.6956 111.62 30.2062 111.911L30.4116 111.732C29.8162 112.523 29.1999 113.344 28.6495 114.011C28.2877 114.449 28.0334 114.551 27.6576 115.204C27.6233 115.187 27.5891 115.171 27.5548 115.154C27.1913 115.696 27.0033 116.077 26.5627 116.659C26.1915 117.149 25.199 118.438 24.8548 118.858C24.6765 119.076 24.6858 118.951 24.5251 119.159C24.2503 119.515 23.7375 120.333 23.3571 120.823C23.2085 121.015 23.0041 121.254 22.7991 121.492L21.9827 120.472C22.3659 120.316 22.749 120.161 22.9686 120.051C24.3597 119.351 25.8435 118.522 27.3582 117.846C27.7767 117.659 28.3485 117.49 28.4773 117.427C28.7287 117.303 28.767 117.188 28.9326 117.098C29.7739 116.639 31.1674 116.099 32.0175 115.704C34.7878 114.417 37.7001 113.006 40.4596 111.727C42.2029 110.919 45.0862 109.546 46.7198 108.851C47.0721 108.702 47.0207 108.832 47.3114 108.695C47.6338 108.544 47.7807 108.403 47.9291 108.327C48.9562 107.804 51.2301 106.663 52.2428 106.26C52.4357 106.183 52.6037 106.188 52.7159 106.135C52.7727 106.108 52.8793 106.001 53.0554 105.913C54.6108 105.13 55.772 104.617 57.323 103.908C60.2932 102.549 63.6777 100.852 66.8051 99.4395C67.4864 99.1317 68.0138 99.0484 68.1083 99.0023C68.3158 98.9015 68.4068 98.748 68.8191 98.5269C70.1905 97.7924 72.1294 96.9992 73.4453 96.3252C74.0954 95.9923 74.9492 95.4505 75.5874 95.1194C76.0971 94.855 77.3446 94.3238 77.551 94.1651C77.6767 94.0687 77.6954 93.9402 77.8573 93.8491ZM61.0813 103.598C61.1001 103.397 60.1891 103.985 60.5934 103.897C60.6845 103.878 61.0765 103.65 61.0813 103.598ZM26.7058 114.728C26.6607 114.705 26.6156 114.683 26.5704 114.66C26.5003 114.784 26.4301 114.908 26.3599 115.032C26.432 114.988 26.5041 114.944 26.5762 114.899C26.6194 114.842 26.6626 114.785 26.7058 114.728Z" fill="white"/>
<path d="M6.18655 173.238C6.04656 173.192 5.88036 173.053 5.72197 172.984C5.05869 172.692 4.82804 172.547 4.2325 172.272C3.34949 171.864 0.652973 170.835 0.825866 170.419C0.82587 170.419 0.825874 170.419 0.825879 170.419C0.827576 170.415 0.82955 170.411 0.831801 170.407C0.87409 170.331 1.13663 170.339 1.20751 170.263C1.27836 170.188 1.49386 169.598 1.82918 169.7C2.31359 169.851 3.37115 170.464 3.62274 170.561C3.79476 170.627 4.02607 170.662 4.24751 170.743C4.96144 171.005 5.31246 171.196 6.00383 171.315C6.22528 171.496 6.44674 171.676 6.66819 171.857C7.01251 171.959 7.47106 172.266 7.6737 172.344C7.83994 172.408 7.96104 172.388 8.13351 172.457C8.32709 172.533 8.59545 172.72 8.94899 172.856C9.52845 173.078 9.69502 172.965 10.047 173.088C10.412 173.216 10.9313 173.531 11.409 173.666C11.4731 173.672 11.5373 173.679 11.6015 173.685C11.5767 173.63 11.5519 173.574 11.5271 173.518C11.7636 173.596 11.8292 173.716 12.0392 173.805C12.2862 173.91 12.4438 173.887 12.6103 173.957C12.7467 174.014 12.9068 174.151 13.0855 174.221C13.3458 174.323 13.3255 174.213 13.4712 174.254C13.5292 174.271 14.5738 174.649 14.6319 174.672C15.073 174.851 15.0618 174.986 15.4081 175.143C16.3686 175.575 17.4067 175.894 18.3213 176.232C18.7296 176.382 19.1458 176.563 19.5384 176.749C18.781 176.791 20.0783 177.609 19.7544 176.915C20.1718 177.168 20.5412 177.171 20.9545 177.368C21.2218 177.496 21.3834 177.64 21.7742 177.801C22.4678 178.085 23.3031 178.212 23.361 178.634C24.1984 178.912 24.8509 179.328 25.2684 179.15C25.4855 179.219 25.9483 179.621 26.1732 179.743C26.3859 179.858 28.0577 180.647 28.3348 180.768C28.6119 180.888 29.0982 181.096 29.3441 181.168C29.6528 181.258 29.9883 181.033 30.3627 181.615C30.986 181.839 31.1994 181.94 31.7501 182.219C31.8498 182.269 31.839 182.328 31.8991 182.353C32.0229 182.405 32.2502 182.452 32.4732 182.539C32.84 182.682 33.0002 182.882 33.0318 182.692C33.2836 182.762 33.5353 182.833 33.787 182.903C33.8571 182.972 33.9273 183.04 33.9974 183.109C34.0789 183.118 34.1604 183.128 34.2419 183.137L34 184.349C33.9402 184.367 33.8803 184.384 33.8205 184.401C33.9835 184.129 33.0069 184.289 33.324 184.445C32.8209 184.389 32.3179 184.333 31.8148 184.276C31.885 183.968 30.7102 184.241 30.8091 184.409C30.7516 184.409 30.694 184.408 30.6364 184.408C30.1325 184.326 29.6697 184.393 29.0554 184.338C28.4412 184.283 28.4989 184.253 28.3121 184.111C28.2244 184.116 28.1368 184.121 28.0492 184.125L28.4554 183.719C28.4586 183.776 28.4618 183.833 28.465 183.89C28.8545 184.648 28.1801 184.514 28.4789 185.813C28.234 186.228 28.3627 187.251 28.4369 187.929C28.4455 188.008 28.493 188.009 28.5077 188.114C28.5429 188.371 28.4818 189.027 28.6351 189.005C28.5908 189.232 28.5464 189.459 28.5021 189.686C28.53 189.871 28.5578 190.057 28.5857 190.242C28.6335 190.241 28.6814 190.24 28.7293 190.239C28.5662 190.613 28.6288 191.2 28.5898 191.49C28.5819 191.547 28.5159 191.56 28.4979 191.739C28.4766 191.948 28.4961 192.338 28.4755 192.588C28.5486 192.685 28.6217 192.782 28.6948 192.879C28.7345 193.325 28.5415 193.482 28.5265 193.744C28.5239 193.791 28.5378 194.651 28.5419 194.698C28.5745 195.077 28.739 194.97 28.7037 196.067C28.6974 196.263 28.6405 196.421 28.6382 196.598C28.6341 196.91 28.7631 197.85 28.8823 197.924C28.7331 198.303 28.7941 199.316 28.751 199.614C28.7377 199.704 28.6427 199.725 28.6224 200.001C28.6059 200.226 28.6821 200.804 28.6693 201.088C28.6554 201.39 28.5756 201.498 28.57 201.634C28.5647 201.761 28.6292 201.879 28.6288 202.054C28.6265 202.598 28.5228 203.09 28.5209 203.52C28.5201 203.685 28.5329 203.845 28.5538 204L28.5454 204.513L28.0492 204.505C27.6182 204.562 27.2202 204.682 26.8379 204.744C26.7087 204.732 26.5819 204.691 26.4465 204.691C24.7717 204.685 22.8825 204.649 21.2027 204.609C20.4229 204.59 18.4838 204.331 19.0013 204.763C18.7303 204.839 16.7599 204.664 16.3851 204.662C16.0104 204.659 15.7134 204.737 15.4189 204.738C14.53 204.741 13.9042 204.685 12.8223 204.753C12.5429 204.77 12.2435 204.862 12.078 204.861C11.8787 204.86 11.6642 204.771 11.406 204.765C10.7906 204.753 9.64354 204.782 9.05306 204.766C8.94525 204.763 8.90738 204.685 8.75319 204.661C8.15272 204.566 7.47967 204.574 7.59876 204.823C6.82912 204.682 6.11716 204.811 5.40393 204.818C4.26006 204.831 2.40338 204.8 1 204.83L0.156258 204.817L0.169537 204C0.159916 203.568 0.144143 203.156 0.118879 202.84C0.0528865 202.012 -0.0587707 202.035 0.0375801 200.813C0.0589486 200.548 0.0877708 200.261 0.113264 199.944C0.173254 199.171 0.379529 198.459 0.130964 197.881C0.19543 197.021 0.149713 196.343 0.362288 195.711C0.311303 195.635 0.260318 195.56 0.209333 195.485C0.208072 195.378 0.206811 195.274 0.205549 195.17C0.254174 195.138 0.302799 195.105 0.351424 195.073C0.364518 194.322 0.164663 193.365 0.16612 192.734C0.16837 191.668 0.246014 188.923 0.311629 187.912C0.346472 187.375 0.242329 187.346 0.456404 187.039C0.441512 186.92 0.426619 186.8 0.411726 186.68C0.364851 186.604 0.317976 186.529 0.271101 186.454C0.269226 185.766 0.342037 184.949 0.341292 184.294C0.339792 183.099 0.210781 181.304 0.295515 180.105C0.316884 179.803 0.41355 179.427 0.412459 179.133C0.410959 178.705 0.250541 178.598 0.247542 178.056C0.242667 177.116 0.429026 175.371 0.414778 174.485C0.410651 174.225 0.350962 174.097 0.344588 173.916C0.317217 173.156 0.322077 172.529 0.229841 171.797C0.383568 171.01 0.581992 171.085 0.782211 170.837C0.933325 170.65 1.28353 170.088 1.41588 170.01C1.50886 169.954 1.62847 170.162 1.73082 170.084C1.81256 171.02 1.72258 171.415 1.5786 172.183C1.58434 173.594 1.59007 175.002 1.59581 176.412C1.53994 176.541 1.48408 176.67 1.42821 176.797C1.42809 176.797 1.42796 176.797 1.42784 176.797C1.36337 177.336 1.50724 177.568 1.5399 177.861C1.85261 180.655 1.60786 186.159 1.57262 189.238C1.56512 189.901 1.6404 192.056 1.54967 192.514C1.52604 192.632 1.43989 192.665 1.43614 192.79C1.48737 193.913 1.5386 195.023 1.58983 196.15C1.45598 198.456 1.56652 200.837 1.58714 203.156C1.58966 203.426 1.59221 203.734 1.59476 204L1 203.405C6.98959 203.351 12.9229 203.29 18.8197 203.31C20.0132 203.314 21.5276 203.249 22.696 203.291C23.1836 203.308 23.3868 203.447 24.0273 203.343C24.0341 203.381 24.0408 203.418 24.0475 203.455C24.6065 203.41 24.9638 203.325 25.5905 203.317C26.1183 203.31 27.5146 203.304 27.981 203.318C28.0074 203.319 28.0299 203.321 28.0492 203.323L27.3719 204C27.389 203.842 27.4443 203.892 27.444 203.691C27.4428 203.305 27.3466 202.48 27.3466 201.947C27.3466 201.464 27.4268 200.651 27.4152 200.28C27.3739 198.943 27.255 197.488 27.2869 196.064C27.2959 195.67 27.3862 195.164 27.3837 195.041C27.3784 194.8 27.2907 194.729 27.2794 194.567C27.2224 193.746 27.3267 192.466 27.3308 191.661C27.3442 189.062 27.3067 186.31 27.3217 183.719L27.3101 183.004L28.0492 182.992C28.0725 182.992 28.0959 182.992 28.1192 182.992C29.7569 183.002 32.4705 182.987 34 183.051L33.7436 184.336C33.7334 184.331 33.7233 184.326 33.7132 184.322C33.4154 184.182 33.5331 184.127 33.2785 184.021C32.9961 183.904 32.8183 183.9 32.6843 183.85C31.7568 183.505 29.7153 182.727 28.8785 182.307C28.7191 182.227 28.6289 182.108 28.5304 182.068C28.4806 182.047 28.3484 182.048 28.1902 181.987C26.7925 181.457 25.798 181.011 24.4527 180.432C21.8761 179.325 18.8391 178.166 16.1388 176.987C15.5505 176.731 15.2012 176.424 15.1173 176.391C14.9332 176.318 14.7777 176.361 14.3978 176.23C13.135 175.793 11.5175 175.005 10.3268 174.565C9.73859 174.347 8.89452 174.134 8.31422 173.923C7.85072 173.754 6.79563 173.262 6.5726 173.23C6.43699 173.21 6.33865 173.286 6.18655 173.238ZM22.1577 178.051C22.0101 178.177 22.917 178.398 22.6332 178.18C22.5693 178.13 22.1959 178.018 22.1577 178.051ZM24.2052 204.387C24.2136 204.437 24.2221 204.486 24.2305 204.536C24.3516 204.515 24.4727 204.494 24.5938 204.474C24.5257 204.444 24.4577 204.414 24.3896 204.385C24.3281 204.386 24.2667 204.386 24.2052 204.387Z" fill="white"/>
<path d="M35.5229 199.999C35.3666 200.011 35.1461 199.946 34.9618 199.942C34.1898 199.927 33.9037 199.882 33.2051 199.857C32.1693 199.819 29.0953 199.904 29.0952 199.454C29.0952 199.454 29.0952 199.454 29.0952 199.454C29.0952 199.449 29.0955 199.445 29.0961 199.44C29.1069 199.354 29.3684 199.261 29.4072 199.164C29.4459 199.066 29.4169 198.44 29.7882 198.404C30.3266 198.358 31.6183 198.519 31.9055 198.511C32.1018 198.507 32.3435 198.45 32.5945 198.439C33.404 198.407 33.8275 198.448 34.5568 198.294C34.8485 198.375 35.1402 198.457 35.4319 198.538C35.8125 198.501 36.3893 198.608 36.6205 198.602C36.8102 198.597 36.9214 198.533 37.1191 198.53C37.3408 198.526 37.6813 198.596 38.0847 198.585C38.7459 198.568 38.8636 198.4 39.2603 198.379C39.6717 198.357 40.3116 198.448 40.8365 198.389C40.9023 198.37 40.9682 198.352 41.034 198.333C40.9869 198.291 40.9397 198.25 40.8925 198.208C41.1569 198.188 41.2706 198.274 41.5136 198.276C41.7994 198.277 41.9453 198.196 42.1377 198.197C42.2952 198.197 42.5089 198.262 42.7132 198.258C43.0111 198.252 42.946 198.158 43.1063 198.141C43.1702 198.134 44.3527 198.082 44.4194 198.081C44.9268 198.077 44.971 198.206 45.3755 198.218C46.4976 198.248 47.6495 198.144 48.6874 198.105C49.1509 198.087 49.6345 198.095 50.0966 198.115C49.7569 198.269 49.9265 198.407 50.1429 198.458L49.601 199C49.6593 198.753 49.6039 198.444 49.3285 198.766C49.402 198.252 49.2626 197.887 49.2862 197.4C49.3015 197.084 49.3731 196.866 49.3712 196.416C49.3675 195.617 49.164 194.743 49.5318 194.514C49.4669 193.576 49.6003 192.764 49.2757 192.426C49.2558 192.184 49.4492 191.565 49.4755 191.293C49.5002 191.037 49.5876 189.069 49.5924 188.747C49.5973 188.425 49.6026 187.862 49.5741 187.59C49.5389 187.25 49.2022 187.012 49.5958 186.405C49.564 185.7 49.5753 185.449 49.621 184.793C49.6293 184.674 49.6877 184.661 49.6878 184.592C49.6878 184.449 49.6446 184.206 49.6393 183.951C49.6307 183.531 49.7537 183.292 49.5658 183.338C49.5343 183.062 49.5028 182.785 49.4713 182.509C49.5076 182.412 49.5438 182.315 49.5801 182.218C49.5406 182.07 49.5011 181.922 49.4616 181.774C49.7334 181.948 49.573 180.907 49.417 181.245C49.4732 180.709 49.5295 180.173 49.5857 179.637C49.8947 179.712 49.6214 178.46 49.4534 178.565C49.4536 178.504 49.4539 178.443 49.4541 178.381C49.5362 177.844 49.4691 177.351 49.5242 176.697C49.5793 176.042 49.6094 176.104 49.7515 175.905C49.7433 175.751 49.7352 175.597 49.7271 175.443C49.3375 174.634 50.012 174.777 49.7132 173.393C49.958 172.951 49.8294 171.861 49.7551 171.139C49.7465 171.054 49.699 171.053 49.6843 170.941C49.6491 170.667 49.7102 169.968 49.5569 169.992C49.6013 169.751 49.6456 169.509 49.69 169.267C49.6621 169.069 49.6342 168.871 49.6063 168.674C49.5585 168.675 49.5106 168.676 49.4628 168.677C49.6259 168.279 49.5632 167.653 49.6022 167.345C49.6101 167.283 49.6761 167.27 49.6941 167.079C49.7155 166.856 49.696 166.44 49.7166 166.174C49.6435 166.071 49.5703 165.968 49.4972 165.864C49.4576 165.389 49.6506 165.222 49.6655 164.943C49.6682 164.893 49.6543 163.976 49.6502 163.926C49.6175 163.522 49.4531 163.636 49.4883 162.467C49.4947 162.258 49.5516 162.09 49.5539 161.901C49.558 161.569 49.4289 160.567 49.3097 160.488C49.4353 160.148 49.412 159.33 49.4271 158.89L49.4382 158.164L50.1429 158.174C50.2259 158.177 50.2955 158.181 50.3459 158.188C50.4419 158.202 50.4635 158.297 50.7584 158.317C50.9975 158.333 51.6133 158.257 51.9166 158.27C52.2385 158.284 52.3534 158.364 52.4977 158.369C52.6339 158.375 52.7595 158.31 52.9452 158.311C53.5248 158.313 54.0498 158.417 54.5079 158.418C54.6767 158.419 54.8405 158.407 55 158.388L54.7504 159.326C54.3172 159.143 53.8831 159.035 53.4933 158.885C53.38 158.806 53.2831 158.703 53.1581 158.631C51.6124 157.739 49.8829 156.708 48.35 155.783C47.6382 155.354 45.9739 154.102 46.2377 154.751C45.9494 154.673 44.214 153.479 43.8687 153.278C43.5236 153.077 43.2104 152.987 42.9375 152.832C42.1139 152.365 41.5629 151.985 40.529 151.47C40.2619 151.338 39.9394 151.259 39.7869 151.17C39.6034 151.063 39.4492 150.873 39.2132 150.731C38.7445 150.451 37.9205 150 37.3471 149.669L38.1224 149.663C38.0077 149.731 37.9021 149.792 37.8103 149.843C37.7098 149.899 37.6354 149.852 37.4816 149.915C36.8823 150.158 36.2691 150.531 36.5051 150.68C35.7272 150.976 35.1397 151.473 34.4895 151.867C33.1143 152.698 30.5649 154.138 29.413 154.94C28.6867 155.446 28.763 155.531 27.5952 156.109C27.3359 156.238 27.074 156.359 26.7599 156.515C26.0233 156.881 25.2706 157.086 24.8589 157.618C24.042 158.026 23.4407 158.435 22.7507 158.596C22.7081 158.68 22.6655 158.765 22.6228 158.849C22.5273 158.907 22.4318 158.965 22.3363 159.023C22.2816 158.999 22.2269 158.975 22.1721 158.951C21.907 159.102 21.6307 159.295 21.358 159.496L21 158.187C21.5467 158.131 22.0951 158.055 22.5141 158.056C23.2248 158.058 24.6364 158.089 25.8571 158.128L26.6311 158.139L26.6196 158.89C26.5963 159.62 26.5701 160.281 26.5455 160.684C26.5107 161.255 26.6148 161.286 26.4007 161.613C26.4156 161.741 26.4305 161.869 26.4454 161.997C26.4923 162.077 26.5392 162.157 26.586 162.237C26.5879 162.97 26.5151 163.84 26.5159 164.539C26.5174 165.812 26.6464 167.723 26.5616 169.002C26.5403 169.322 26.4436 169.723 26.4447 170.037C26.4462 170.494 26.6066 170.605 26.6096 171.184C26.6145 172.184 26.4281 174.044 26.4424 174.989C26.4465 175.269 26.5062 175.4 26.5126 175.594C26.5399 176.406 26.5351 177.073 26.6273 177.852C26.4736 178.688 26.2752 178.616 26.0749 178.875C25.9238 179.071 25.5736 179.673 25.4413 179.759C25.3483 179.819 25.2287 179.595 25.1263 179.679C25.0446 178.677 25.1346 178.256 25.2785 177.443C25.2728 175.94 25.2671 174.438 25.2613 172.936C25.3172 172.799 25.3731 172.662 25.4289 172.526C25.4291 172.526 25.4292 172.526 25.4293 172.526C25.4938 171.949 25.3499 171.704 25.3172 171.393C25.0045 168.414 25.2493 162.551 25.2845 159.271C25.2856 159.172 25.285 159.042 25.2835 158.89L25.8571 159.464C24.9233 159.473 23.1651 159.518 22.7481 159.44C22.6226 159.416 22.5876 159.33 22.4541 159.326C21.9694 159.347 21.4847 159.368 21 159.389L19.1797 159.399L20.7463 158.461C21.3408 158.074 21.9353 157.687 22.5298 157.301C24.7104 156.167 26.8379 154.781 28.9559 153.505C31.7802 151.803 34.589 150.107 37.391 148.426L37.7131 148.229L38.0614 148.422C40.9899 150.073 43.9013 151.727 46.7919 153.394C47.8934 154.03 49.3259 154.776 50.3856 155.43C50.8279 155.704 50.947 155.931 51.5906 156.181C51.5783 156.217 51.566 156.253 51.5537 156.289C52.093 156.546 52.4654 156.661 53.0493 156.986C53.5408 157.259 54.8348 157.994 55.2589 158.253C55.2909 158.272 55.3157 158.289 55.3354 158.304L57.5404 159.552L55 159.565C54.855 159.546 54.8953 159.495 54.6899 159.495C54.2785 159.496 53.3994 159.593 52.8317 159.593C52.3174 159.593 51.4504 159.513 51.055 159.524C50.756 159.533 50.4515 159.545 50.1429 159.558L50.811 158.89C50.8614 160.052 50.9304 161.272 50.9052 162.471C50.8962 162.89 50.8059 163.429 50.8084 163.56C50.8136 163.817 50.9013 163.893 50.9126 164.065C50.9696 164.94 50.8654 166.304 50.8612 167.162C50.8477 169.956 50.886 172.917 50.8699 175.699C50.8598 177.457 50.8752 180.378 50.8092 182.001C50.795 182.351 50.6989 182.258 50.6989 182.552C50.6989 182.878 50.7638 183.054 50.7691 183.206C50.8058 184.26 50.8714 186.587 50.8051 187.582C50.7923 187.772 50.717 187.909 50.7173 188.023C50.7173 188.08 50.7687 188.21 50.7739 188.391C50.8204 189.983 50.7905 191.144 50.7729 192.704C50.7509 194.673 50.7849 196.848 50.7958 199L50.8056 199.643L50.1429 199.653C49.0285 199.659 47.92 199.658 46.8492 199.64C46.1653 199.629 45.6962 199.48 45.6001 199.482C45.389 199.485 45.2539 199.585 44.8265 199.61C43.4052 199.691 41.4912 199.584 40.1394 199.634C39.4716 199.659 38.5539 199.786 37.8967 199.814C37.3717 199.837 36.1321 199.787 35.8994 199.843C35.7579 199.877 35.6924 199.985 35.5229 199.999ZM49.4549 195.936C49.6281 196.03 49.4841 195.047 49.3911 195.416C49.3702 195.499 49.4099 195.912 49.4549 195.936ZM51.2363 157.181C51.2195 157.228 51.2028 157.276 51.186 157.323C51.3082 157.369 51.4304 157.416 51.5525 157.462C51.5044 157.4 51.4563 157.338 51.4081 157.276C51.3509 157.245 51.2936 157.213 51.2363 157.181Z" fill="white"/>
<path d="M73.5445 174.999C73.3594 175.011 73.0981 174.946 72.8798 174.942C71.9651 174.927 71.6262 174.882 70.7986 174.857C69.5715 174.819 65.9297 174.904 65.9296 174.454C65.9296 174.454 65.9296 174.454 65.9296 174.454C65.9296 174.449 65.9299 174.445 65.9306 174.44C65.9434 174.354 66.2532 174.261 66.2991 174.164C66.345 174.066 66.3106 173.44 66.7506 173.404C67.3884 173.358 68.9187 173.519 69.2589 173.511C69.4915 173.507 69.7778 173.45 70.0753 173.439C71.0342 173.407 71.536 173.448 72.3999 173.294C72.7455 173.375 73.0911 173.457 73.4367 173.538C73.8876 173.501 74.5709 173.608 74.8449 173.602C75.0696 173.597 75.2013 173.533 75.4355 173.53C75.6982 173.526 76.1017 173.596 76.5795 173.585C77.3629 173.568 77.5023 173.4 77.9723 173.379C78.4597 173.357 79.2177 173.448 79.8396 173.389C79.8461 173.387 79.8526 173.386 79.8592 173.384L80.0688 173.387L80.2236 173.504C80.2913 173.532 80.3589 173.561 80.4266 173.59C80.4063 173.523 80.3861 173.456 80.3658 173.389C80.6298 173.559 80.6876 173.708 80.9187 173.879C81.1906 174.081 81.378 174.118 81.5615 174.253C81.7117 174.364 81.8771 174.566 82.0747 174.706C82.3625 174.911 82.356 174.789 82.5195 174.887C82.5847 174.927 83.7446 175.714 83.8087 175.76C84.2954 176.113 84.2613 176.248 84.641 176.54C85.6943 177.352 86.8559 178.076 87.8704 178.772C88.3234 179.083 88.7807 179.428 89.2098 179.768C88.3194 179.524 89.7057 180.86 89.436 180.022C89.8835 180.442 90.3141 180.585 90.7657 180.946C91.0576 181.179 91.2236 181.39 91.6546 181.704C92.4196 182.261 93.3744 182.71 93.3761 183.167C94.3022 183.767 94.995 184.438 95.5086 184.425L97.6168 185.993L95 185.977C94.9966 185.98 94.9933 185.982 94.9901 185.985C94.7036 186.005 93.9695 185.811 93.6482 185.785C93.3444 185.76 91.013 185.673 90.6316 185.668C90.4986 185.666 90.3307 185.665 90.1549 185.664L90.7016 185.118C90.7009 185.446 90.7051 185.802 90.7237 186.011C90.7589 186.415 91.0956 186.697 90.7019 187.415C90.7338 188.251 90.7225 188.548 90.6768 189.325C90.6685 189.466 90.6101 189.482 90.61 189.564C90.61 189.733 90.6532 190.021 90.6585 190.324C90.6671 190.82 90.5441 191.104 90.732 191.049C90.7635 191.376 90.795 191.704 90.8265 192.032C90.7902 192.146 90.7539 192.261 90.7177 192.376C90.7572 192.551 90.7967 192.727 90.8362 192.902C90.5644 192.696 90.7248 193.929 90.8808 193.529C90.8245 194.164 90.7683 194.799 90.7121 195.434C90.4031 195.345 90.6764 196.828 90.8444 196.703C90.8442 196.776 90.8439 196.849 90.8437 196.921C90.7616 197.558 90.8287 198.142 90.7736 198.917C90.7185 199.693 90.6884 199.62 90.5463 199.856C90.5544 200.038 90.5626 200.221 90.5707 200.403C90.9603 201.361 90.2858 201.191 90.5846 202.831C90.3398 203.355 90.4684 204.646 90.5426 205.502C90.5513 205.602 90.5988 205.603 90.6134 205.736C90.6487 206.061 90.5876 206.888 90.7409 206.86C90.6965 207.147 90.6522 207.433 90.6078 207.72C90.6357 207.954 90.6636 208.188 90.6914 208.422C90.7393 208.421 90.7871 208.42 90.835 208.419C90.6719 208.89 90.7346 209.631 90.6956 209.997C90.6877 210.07 90.6217 210.085 90.6037 210.311C90.5823 210.576 90.6018 211.068 90.5812 211.383C90.6543 211.506 90.7275 211.628 90.8006 211.75C90.8402 212.314 90.6472 212.512 90.6322 212.842C90.6296 212.902 90.6435 213.988 90.6476 214.047C90.6803 214.526 90.8447 214.39 90.8095 215.776C90.8075 215.855 90.8003 215.929 90.7914 216L90.7831 216.645L90.1549 216.636C90.0024 216.617 89.8614 216.591 89.7095 216.589C89.3154 216.585 88.1281 216.714 88.0347 216.833C87.5568 216.684 86.278 216.745 85.9014 216.702C85.7877 216.689 85.762 216.593 85.4126 216.573C85.1294 216.557 84.3998 216.633 84.0406 216.62C83.6592 216.606 83.523 216.526 83.3522 216.521C83.1907 216.516 83.0419 216.58 82.8219 216.58C82.1352 216.577 81.5134 216.474 80.9706 216.472C80.1856 216.469 79.4923 216.66 78.8355 216.744C78.6725 216.732 78.5123 216.691 78.3414 216.691C76.2272 216.685 73.8422 216.649 71.7216 216.609C70.7372 216.59 68.2892 216.331 68.9426 216.763C68.6005 216.839 66.1129 216.664 65.6398 216.662C65.1668 216.659 64.7918 216.737 64.42 216.738C63.2979 216.741 62.5078 216.685 61.1421 216.753C60.7893 216.77 60.4114 216.862 60.2025 216.861C59.9509 216.86 59.6801 216.771 59.3541 216.765C58.7166 216.755 57.6273 216.773 56.8451 216.771L56.0644 216.761L56.0742 216C56.0746 215.829 56.0759 215.672 56.0787 215.539C56.0817 215.403 56.1597 215.355 56.184 215.16C56.2793 214.402 56.271 213.552 56.0221 213.703C56.1634 212.731 56.0345 211.832 56.0266 210.932C56.0104 209.028 56.0686 205.56 55.9639 203.902C55.898 202.856 55.7863 202.883 55.8827 201.343C55.904 201.001 55.9328 200.661 55.9583 200.246C56.0183 199.275 56.2246 198.383 55.976 197.643C56.0405 196.563 55.9948 195.704 56.2074 194.903C56.1564 194.809 56.1054 194.714 56.0544 194.62C56.0531 194.488 56.0519 194.355 56.0506 194.223C56.0992 194.182 56.1479 194.141 56.1965 194.099C56.2096 193.151 56.0097 191.949 56.0112 191.147C56.0134 189.821 56.0889 186.436 56.1539 185.118L56.8451 185.809C56.8258 185.808 56.807 185.807 56.7887 185.806C56.1115 185.771 56.075 185.875 55.6873 185.661C55.5359 185.676 55.3844 185.691 55.233 185.706C55.1382 185.753 55.0434 185.8 54.9486 185.847C54.0798 185.848 53.0493 185.776 52.2216 185.776C52.1494 185.776 52.0755 185.777 52 185.777L50.1114 185.765L51.5884 184.602C52.7544 183.656 54.3425 182.243 55.5198 181.407C55.83 181.187 56.2613 180.966 56.5513 180.733C56.9733 180.395 56.9761 180.187 57.511 179.756C58.4332 179.014 60.2725 177.785 61.1381 177.075C61.3952 176.865 61.4792 176.722 61.6546 176.573C62.3895 175.952 63.01 175.463 63.6736 174.815C64.5437 174.317 64.6006 174.526 64.9655 174.491C65.2416 174.464 66.0177 174.292 66.1794 174.333C66.293 174.361 66.16 174.62 66.3018 174.638C65.4251 175.442 64.9792 175.683 64.1362 176.172C62.7486 177.286 61.3611 178.401 59.9736 179.516C59.8122 179.573 59.6508 179.631 59.4894 179.688C59.4893 179.688 59.4892 179.688 59.4892 179.688C58.9147 180.064 58.778 180.357 58.5103 180.612C57.0921 181.966 54.7499 183.838 52.4223 185.647L52 184.441C53.7026 184.463 55.3881 184.499 56.8451 184.523L57.432 184.515L57.4397 185.118C57.43 185.697 57.4222 186.24 57.4177 186.734C57.4102 187.571 57.4855 190.295 57.3947 190.869C57.3711 191.018 57.285 191.059 57.2812 191.218C57.3324 192.631 57.3837 194.045 57.4349 195.459C57.301 198.366 57.4116 201.372 57.4322 204.301C57.4598 208.219 57.4904 212.117 57.5117 216L56.8451 215.333C60.8165 215.311 64.7714 215.299 68.7133 215.31C70.2199 215.314 72.1318 215.249 73.6067 215.291C74.2223 215.308 74.4788 215.447 75.2875 215.343C75.296 215.381 75.3044 215.418 75.3129 215.455C76.0186 215.41 76.4696 215.325 77.2608 215.317C77.9271 215.31 79.6899 215.304 80.2787 215.318C80.584 215.325 80.4703 215.395 80.755 215.395C81.2424 215.394 82.2838 215.297 82.9564 215.297C83.5657 215.297 84.5929 215.378 85.0613 215.366C86.6768 215.326 88.4304 215.216 90.1549 215.234L89.3894 216C89.3902 215.924 89.3913 215.847 89.3926 215.771C89.4016 215.275 89.4919 214.636 89.4894 214.48C89.4842 214.177 89.3964 214.086 89.3852 213.882C89.3282 212.845 89.4324 211.23 89.4366 210.214C89.4501 206.903 89.4118 203.396 89.4279 200.099C89.438 198.017 89.4226 194.556 89.4886 192.633C89.5028 192.218 89.5989 192.329 89.5989 191.981C89.5989 191.595 89.534 191.385 89.5287 191.205C89.492 189.956 89.4263 187.2 89.4927 186.021C89.5055 185.796 89.5808 185.633 89.5805 185.499C89.5805 185.437 89.5376 185.303 89.5262 185.118L89.5182 184.497L90.1549 184.489C90.1725 184.488 90.1906 184.487 90.2092 184.487C91.9853 184.443 93.3085 184.467 95 184.484L94.6252 185.628C94.5413 185.565 94.4561 185.501 94.3696 185.436C91.5359 183.314 88.173 180.964 85.206 178.721C84.5596 178.232 84.1998 177.783 84.1071 177.717C83.9038 177.571 83.7155 177.557 83.2927 177.278C82.1203 176.501 80.6978 175.378 79.4917 174.5L79.8592 174.621C79.5629 174.622 79.2792 174.626 79.0138 174.634C78.2226 174.659 77.1354 174.786 76.3568 174.814C75.7349 174.837 74.2662 174.787 73.9906 174.843C73.8229 174.877 73.7453 174.985 73.5445 174.999ZM92.063 182.108C91.8712 182.182 92.8949 182.755 92.5978 182.421C92.5309 182.346 92.1127 182.088 92.063 182.108ZM75.512 216.387C75.5226 216.437 75.5333 216.486 75.544 216.536C75.6968 216.515 75.8497 216.494 76.0025 216.474C75.9166 216.444 75.8307 216.414 75.7448 216.385C75.6672 216.386 75.5896 216.386 75.512 216.387Z" fill="white"/>
<path d="M168.346 198.728C168.358 198.958 168.293 199.284 168.29 199.555C168.288 199.717 168.285 199.864 168.282 200L168.292 200.924L167.348 200.934C166.522 200.915 166.085 200.879 165.201 200.857C163.672 200.819 159.137 200.904 159.137 200.454C159.137 200.454 159.137 200.454 159.137 200.454C159.137 200.449 159.137 200.445 159.138 200.44C159.154 200.354 159.54 200.261 159.597 200.164C159.654 200.066 159.611 199.44 160.159 199.404C160.954 199.358 162.859 199.519 163.283 199.511C163.573 199.507 163.929 199.45 164.3 199.439C165.494 199.407 166.119 199.448 167.195 199.294C167.246 199.303 167.297 199.313 167.348 199.323L166.671 200C166.742 199.621 166.814 199.241 166.886 198.862C166.848 198.3 166.956 197.449 166.95 197.108C166.945 196.828 166.881 196.664 166.878 196.373C166.874 196.046 166.944 195.543 166.933 194.948C166.916 193.972 166.748 193.799 166.727 193.214C166.704 192.607 166.796 191.663 166.737 190.888C166.718 190.791 166.7 190.694 166.681 190.597C166.639 190.666 166.597 190.736 166.556 190.805C166.536 190.415 166.622 190.248 166.623 189.889C166.625 189.467 166.544 189.252 166.544 188.968C166.545 188.736 166.61 188.421 166.606 188.119C166.6 187.68 166.506 187.776 166.488 187.539C166.482 187.445 166.43 185.7 166.429 185.602C166.425 184.853 166.554 184.788 166.565 184.191C166.596 182.536 166.492 180.836 166.453 179.305C166.447 179.084 166.444 178.859 166.443 178.634L166.452 177.72L167.348 177.729C167.819 177.727 168.295 177.735 168.756 177.749C167.682 178.079 170.058 178.336 169.17 177.819C169.473 177.849 169.741 177.844 170 177.829L169.196 178.634C169.174 178.246 169.129 177.88 169.143 177.449C169.159 176.984 169.23 176.662 169.228 175.997C169.228 175.835 169.224 175.671 169.217 175.507L169.71 176.234C168.744 175.889 167.776 175.618 167.623 175.215C166.314 174.762 165.251 174.193 164.667 174.31C164.329 174.196 163.551 173.677 163.19 173.504C162.847 173.341 160.184 172.182 159.745 172.001C159.305 171.821 158.535 171.507 158.153 171.385C157.673 171.231 157.222 171.414 156.538 170.716C155.56 170.359 155.22 170.211 154.338 169.81C154.179 169.737 154.182 169.676 154.087 169.638C153.891 169.559 153.542 169.466 153.191 169.332C152.613 169.11 152.33 168.865 152.325 169.065C151.934 168.943 151.544 168.82 151.153 168.698C151.034 168.611 150.914 168.525 150.795 168.438C150.578 168.394 150.36 168.349 150.143 168.305C150.482 168.148 148.997 167.727 149.402 168.057C148.688 167.711 147.975 167.365 147.261 167.02C147.478 166.774 145.662 166.342 145.744 166.556C145.66 166.522 145.576 166.488 145.492 166.454C144.787 166.084 144.086 165.876 143.21 165.467C142.334 165.057 142.429 165.063 142.209 164.822C141.995 164.745 141.781 164.669 141.567 164.592C140.315 164.511 140.761 163.963 138.754 163.483C138.702 163.435 138.64 163.388 138.568 163.34L138.847 163.338C138.098 163.483 136.854 164.127 135.997 164.561C135.886 164.617 135.902 164.661 135.756 164.739C135.397 164.928 134.423 165.272 134.515 165.4C134.169 165.497 133.823 165.595 133.477 165.692C133.219 165.831 132.961 165.97 132.703 166.109C132.723 166.153 132.743 166.196 132.763 166.24C132.158 166.317 131.332 166.733 130.897 166.874C130.811 166.902 130.767 166.848 130.501 166.941C130.189 167.049 129.631 167.305 129.262 167.438C129.15 167.565 129.037 167.691 128.925 167.818C128.294 168.127 127.992 168.045 127.607 168.191C127.537 168.217 126.296 168.755 126.23 168.787C125.693 169.048 125.913 169.134 124.308 169.772C124.023 169.885 123.772 169.929 123.515 170.035C123.061 170.221 121.748 170.914 121.687 171.069C121.081 171.163 119.637 171.837 119.188 171.979C119.052 172.022 118.986 171.947 118.577 172.097C118.245 172.218 117.437 172.641 117.02 172.803C116.577 172.974 116.39 172.967 116.192 173.044C116.004 173.117 115.858 173.249 115.606 173.355C114.817 173.684 114.063 173.889 113.439 174.15C112.537 174.526 111.815 175.037 111.094 175.433C110.902 175.5 110.703 175.54 110.506 175.622C110.101 175.792 109.686 175.964 109.266 176.139L109.685 175.507C109.679 176.698 109.667 177.933 109.653 179.155L109 178.502C109.715 178.51 110.426 178.52 111.122 178.53L111.753 178.536L111.747 179.155C111.742 179.537 111.736 179.915 111.73 180.286C111.712 181.511 111.452 184.56 111.885 183.746C111.96 184.172 111.786 187.27 111.783 187.86C111.781 188.449 111.858 188.916 111.86 189.379C111.863 190.776 111.807 191.76 111.875 193.461C111.892 193.9 111.984 194.371 111.983 194.631C111.981 194.944 111.893 195.281 111.887 195.687C111.874 196.655 111.903 198.458 111.888 199.387C111.885 199.556 111.807 199.616 111.783 199.858C111.778 199.905 111.774 199.952 111.769 200L111.122 199.352C112.026 199.433 112.972 199.414 112.795 199.177C113.499 199.259 114.173 199.25 114.835 199.226L114.061 200C114.044 199.526 114.02 199.058 114.016 198.59C114 196.219 114.058 191.9 113.954 189.834C113.888 188.532 113.776 188.565 113.872 186.648C113.892 186.258 113.918 185.869 113.942 185.408L113.951 184.506L114.835 184.515C114.876 184.517 114.918 184.52 114.961 184.522C116.171 184.582 117.281 184.788 118.203 184.539C119.547 184.604 120.618 184.558 121.615 184.771C121.732 184.72 121.85 184.669 121.967 184.618C122.132 184.617 122.297 184.615 122.462 184.614C122.513 184.663 122.565 184.711 122.616 184.76C123.796 184.773 125.294 184.573 126.293 184.575C127.568 184.576 130.372 184.622 132.339 184.672L133.083 184.68L133.075 185.408C133.06 186.026 133.043 186.561 133.028 186.941C132.993 187.784 133.097 187.83 132.883 188.312C132.898 188.501 132.913 188.69 132.927 188.878C132.974 188.996 133.021 189.114 133.068 189.232C133.07 190.314 132.997 191.598 132.998 192.628C132.999 194.507 133.128 197.327 133.044 199.213C133.033 199.455 133.002 199.729 132.975 200L132.339 199.364C132.597 199.39 132.853 199.413 133.079 199.412C133.753 199.411 133.917 199.251 134.772 199.248C136.247 199.243 138.992 199.429 140.385 199.415C140.799 199.411 140.992 199.351 141.278 199.345C142.476 199.317 143.46 199.322 144.609 199.23C145.843 199.384 145.736 199.582 146.119 199.782C146.408 199.933 147.297 200.284 147.423 200.416C147.512 200.509 147.181 200.628 147.305 200.731C145.827 200.813 145.206 200.723 144.006 200.579C141.789 200.584 139.573 200.59 137.356 200.596C137.154 200.54 136.953 200.484 136.751 200.428C136.751 200.428 136.751 200.428 136.751 200.428C135.9 200.363 135.539 200.507 135.08 200.54C134.289 200.596 133.359 200.634 132.339 200.659L131.687 200.666L131.68 200C131.573 195.564 131.723 189.409 131.762 185.408L132.339 185.986C132.15 185.984 131.967 185.982 131.788 185.981C130.745 185.974 127.354 186.049 126.638 185.958C126.453 185.934 126.402 185.848 126.205 185.845C124.444 185.896 122.683 185.947 120.923 185.998C118.919 185.924 116.877 185.925 114.835 185.944L115.37 185.408C115.386 187.056 115.413 188.703 115.422 190.332C115.44 193.565 115.46 196.787 115.477 200L115.484 200.636L114.835 200.642C113.596 200.649 112.358 200.655 111.122 200.661L110.467 200.668L110.46 200C110.435 194.655 110.42 189.334 110.431 184.032C110.435 182.549 110.395 180.751 110.399 179.155L111.122 179.878C110.699 179.877 110.29 179.873 109.905 179.864C109.543 179.856 109.281 179.821 109 179.797L108.365 179.803L108.358 179.155C108.385 178.839 108.398 178.499 108.343 177.967C108.381 177.956 108.418 177.945 108.455 177.935C108.41 177.056 108.325 176.494 108.317 175.509C108.317 175.508 108.317 175.508 108.317 175.507L108.312 175.061L108.735 174.877C109.498 174.548 111.517 173.692 112.197 173.421C112.551 173.28 112.447 173.399 112.774 173.261C113.333 173.025 114.491 172.433 115.263 172.108C115.962 171.813 117.172 171.391 117.705 171.154C119.625 170.301 121.688 169.303 123.764 168.463C124.338 168.232 125.106 168.006 125.283 167.929C125.63 167.777 125.7 167.653 125.93 167.544C127.097 166.99 128.992 166.305 130.16 165.818C132.861 164.691 135.665 163.493 138.421 162.327L138.689 162.211L138.975 162.322C140.112 162.774 141.238 163.225 142.343 163.671C144.747 164.643 148.755 166.228 150.954 167.178C151.428 167.383 151.265 167.421 151.668 167.582C152.114 167.76 152.38 167.797 152.59 167.875C154.048 168.418 157.26 169.631 158.599 170.238C158.854 170.353 159.014 170.498 159.17 170.56C159.249 170.592 159.446 170.615 159.695 170.709C161.893 171.538 163.473 172.201 165.604 173.072C167.075 173.673 168.637 174.292 170.234 174.921L170.627 175.073L170.631 175.507C170.636 176.54 170.643 177.587 170.648 178.634L170.655 179.275L170 179.282C169.114 179.286 168.228 179.289 167.348 179.29L168.004 178.634C168.005 179.778 168.001 180.911 167.988 182.017C167.977 183.026 167.828 183.718 167.83 183.86C167.833 184.171 167.933 184.371 167.958 185.001C168.039 187.098 167.932 189.922 167.982 191.917C168.007 192.902 168.134 194.256 168.162 195.225C168.185 196 168.135 197.829 168.191 198.172C168.224 198.381 168.333 198.478 168.346 198.728ZM169.543 176.065C169.735 175.956 168.336 175.551 168.806 175.839C168.912 175.904 169.493 176.094 169.543 176.065ZM109.387 177.687C109.437 177.674 109.486 177.66 109.536 177.647C109.515 177.457 109.494 177.266 109.474 177.076C109.444 177.183 109.414 177.29 109.385 177.397C109.386 177.494 109.386 177.59 109.387 177.687Z" fill="white"/>
<path d="M154.406 184.811C154.322 184.661 154.281 184.408 154.208 184.221C153.905 183.427 153.855 183.117 153.667 182.388C153.336 181.312 152.783 178.099 153.259 178.051C153.259 178.051 153.259 178.051 153.259 178.051C153.263 178.051 153.268 178.05 153.272 178.051C153.359 178.053 153.484 178.314 153.585 178.341C153.687 178.369 154.304 178.262 154.388 178.63C154.498 179.162 154.569 180.472 154.646 180.753C154.692 180.945 154.802 181.17 154.873 181.41C155.104 182.183 155.192 182.606 155.586 183.224C155.61 183.517 155.645 183.816 155.692 184.113C155.879 184.441 156.054 184.993 156.179 185.185C156.281 185.346 156.392 185.402 156.502 185.563C156.624 185.74 156.76 186.057 157.022 186.355C157.457 186.837 157.667 186.791 157.957 187.033C158.257 187.282 158.69 187.733 159.156 187.95C159.219 187.968 159.283 187.985 159.347 188.002C159.33 187.943 159.313 187.884 159.297 187.824C159.404 187.88 159.472 187.937 159.536 187.995L160.631 188.644L159.569 189.307C159.29 189.462 159.007 189.465 158.772 189.441C158.262 189.362 158.115 189.338 157.891 189.244C157.719 189.163 157.541 188.993 157.352 188.893C157.078 188.747 157.093 188.863 156.945 188.801C156.91 188.787 156.473 188.569 156.234 188.506L157.433 187.623C157.451 187.847 157.467 188.022 157.469 188.047C157.499 188.554 157.375 188.606 157.396 189.006C157.46 190.123 157.755 191.219 158.114 192.115C158.272 192.517 158.444 192.925 158.631 193.306C158.005 192.858 158.545 194.33 158.699 193.566C158.885 194.016 159.201 194.213 159.472 194.58C159.653 194.818 159.735 195.021 160.043 195.331C160.593 195.883 161.393 196.275 161.339 196.705C161.488 196.81 161.623 196.911 161.76 197.015L162.569 197.666L161.637 198.084C160.918 198.45 160.154 198.518 159.772 198.745C159.413 198.766 158.719 198.386 158.465 198.262C158.413 198.239 158.287 198.187 158.124 198.117L158.982 197.395C159.051 198.047 159.329 199.302 159.419 199.537C159.511 199.839 159.709 200.354 159.848 200.58C160.026 200.87 160.404 200.897 160.376 201.591C160.777 202.138 160.919 202.326 161.32 202.822C161.395 202.911 161.363 202.961 161.411 203.009C161.51 203.108 161.712 203.241 161.904 203.402C162.221 203.666 162.336 203.906 162.415 203.73C162.65 203.876 162.887 204.013 163.13 204.147C163.189 204.233 163.246 204.317 163.306 204.403C163.452 204.456 163.595 204.505 163.742 204.555C163.443 204.686 164.416 205.128 164.212 204.81C164.57 205.096 164.937 205.38 165.307 205.664L166.303 206.295L165.212 206.705C165.084 206.745 164.959 206.767 164.838 206.778C164.857 206.621 164.483 206.672 164.143 206.68C163.799 206.698 163.46 206.722 163.499 206.819C163.429 206.802 163.361 206.785 163.294 206.767C162.731 206.529 162.215 206.403 161.598 206.082C160.989 205.759 161.064 205.755 160.934 205.541C160.785 205.483 160.637 205.425 160.489 205.367C159.691 205.385 159.899 204.935 159.037 204.69L159.51 204.315C159.534 204.44 159.574 204.58 159.643 204.736C159.457 205.203 159.966 206.202 160.418 206.754C160.469 206.82 160.51 206.797 160.581 206.882C160.749 207.091 161.11 207.69 161.221 207.578C161.329 207.796 161.445 208.016 161.563 208.233C161.711 208.371 161.86 208.508 162.01 208.644C162.046 208.612 162.082 208.581 162.118 208.549C162.253 208.964 162.72 209.409 162.898 209.676C162.933 209.729 162.892 209.784 163.006 209.944C163.14 210.134 163.433 210.449 163.594 210.675C163.719 210.71 163.844 210.748 163.969 210.785C164.127 210.949 164.203 211.092 164.256 211.223L165.261 212.512L163.672 212.174C163.524 212.095 163.416 212.012 163.267 211.974C163.22 211.96 162.29 211.795 162.242 211.791C161.829 211.748 161.913 211.929 160.741 211.682C160.526 211.636 160.374 211.551 160.178 211.513C159.843 211.45 158.792 211.378 158.686 211.475C158.301 211.25 157.168 211.031 156.851 210.876C156.756 210.832 156.762 210.737 156.469 210.614C156.231 210.519 155.583 210.343 155.291 210.187C154.98 210.024 154.91 209.895 154.774 209.817C154.649 209.745 154.498 209.735 154.326 209.635C153.788 209.32 153.385 208.919 152.996 208.634C152.468 208.246 151.911 208.013 151.426 207.724L152.622 207.21C152.626 207.246 152.629 207.283 152.631 207.319C152.609 207.468 152.555 207.612 152.537 207.771C152.43 209.808 150.948 211.815 149.64 213.074C149.546 213.17 149.428 213.283 149.294 213.406L148.522 214.19L148.299 213.127C148.145 212.163 147.956 210.721 147.704 211.269C147.565 210.996 147.266 208.849 147.179 208.447C147.119 208.172 147.032 207.943 146.959 207.725L147.888 208.251C147.783 208.297 147.676 208.338 147.57 208.369C146.543 208.647 145.834 208.685 144.623 208.862C144.31 208.906 143.979 209.018 143.793 209.027C143.568 209.037 143.323 208.959 143.034 208.963C142.344 208.976 141.063 208.999 140.403 208.956C140.283 208.948 140.244 208.869 140.073 208.837C140.039 208.831 140.005 208.825 139.97 208.819L138.148 208.721L139.615 207.652C140.17 207.341 140.68 206.933 140.44 206.819C141.196 206.428 141.735 205.854 142.333 205.369C143.622 204.365 145.819 202.416 146.464 201.226C146.883 200.489 146.801 200.474 147.423 199.423C147.555 199.186 147.686 198.946 147.823 198.642C148.023 198.197 148.241 197.769 148.342 197.345L149.41 198.181C149.152 198.308 148.92 198.45 148.719 198.637C147.773 198.982 146.932 199.231 146.157 199.1C146.075 199.16 145.991 199.219 145.906 199.277C145.781 199.288 145.656 199.297 145.532 199.303C145.492 199.256 145.451 199.209 145.412 199.162C145.225 199.165 145.029 199.173 144.829 199.183L142.917 199.14L144.433 197.99C144.952 197.533 145.444 196.966 145.836 196.615C146.753 195.909 148.553 193.796 148.825 192.789C149.032 192.284 148.929 192.226 149.217 191.97C149.233 191.845 149.247 191.719 149.259 191.592C149.23 191.504 149.2 191.418 149.17 191.331C149.31 190.624 149.507 189.751 149.62 189.036C149.624 189.011 149.627 188.986 149.631 188.96L150.576 189.653C150.244 189.809 149.936 190.021 149.341 190.168C149.04 190.245 148.578 190.189 148.3 190.046C148.012 189.911 147.821 189.77 147.634 189.639L146.852 189.037L147.642 188.481C148.236 188.028 148.815 187.588 149.3 187.252C149.564 187.072 149.941 186.887 150.171 186.685C150.515 186.379 150.487 186.194 150.873 185.797C151.593 185.152 152.49 183.75 152.589 182.78C152.636 182.508 152.595 182.375 152.618 182.18C152.703 181.383 152.767 180.697 152.751 179.895C152.984 179.054 153.176 179.14 153.4 178.899C153.57 178.707 153.98 178.134 154.122 178.054C154.221 178.001 154.316 178.247 154.427 178.17C154.403 179.2 154.277 179.618 154.054 180.441C153.891 181.962 153.843 183.617 153.019 185.167C152.894 185.278 152.769 185.379 152.639 185.478C152.639 185.478 152.639 185.478 152.639 185.477C152.236 185.968 152.163 186.25 151.962 186.526C151.196 187.546 149.899 188.595 148.474 189.627L148.482 188.505C148.632 188.618 148.78 188.723 148.882 188.776C148.993 188.829 148.985 188.825 149.061 188.822C149.232 188.809 149.632 188.627 149.981 188.459L151.139 187.864L150.949 189.169C150.629 191.13 150.237 193.257 149.369 194.622C149.041 195.35 147.404 197.244 146.942 197.48C146.828 197.552 146.74 197.516 146.636 197.604C146.158 198.064 145.662 198.502 145.155 198.927L144.846 198C145.404 197.984 145.946 197.933 146.464 197.817C147.269 197.727 148.061 197.434 148.836 197.043L149.821 196.533L149.584 197.628C149.209 199.32 148.488 200.993 147.441 202.374C145.45 204.98 142.851 206.821 140.394 208.704L140.03 207.512C142.544 207.583 145.188 207.575 147.442 206.911L148.158 206.661L148.338 207.418C148.588 208.533 148.835 209.646 149.079 210.759C149.22 211.4 149.396 212.124 149.568 212.845L148.356 212.505C148.852 211.975 149.329 211.445 149.717 210.986C150.034 210.602 150.286 210.509 150.513 209.902C150.549 209.914 150.585 209.926 150.621 209.938C150.844 209.417 150.894 209.067 151.031 208.466C151.094 208.192 151.178 207.655 151.206 207.126L151.271 205.759L152.34 206.639C152.698 206.941 153.03 207.206 153.21 207.353C153.41 207.516 153.287 207.509 153.483 207.656C153.812 207.904 154.585 208.316 155.065 208.581C155.496 208.835 156.225 209.257 156.594 209.376C157.904 209.831 159.462 209.977 160.996 210.288C161.415 210.372 161.953 210.562 162.083 210.584C162.346 210.627 162.439 210.555 162.616 210.577C163.004 210.626 163.461 210.719 163.945 210.832L163.183 212.074C162.799 211.559 162.392 211.024 162.065 210.639C160.684 208.946 158.726 207.132 158.426 204.422L158.3 203.302L159.39 203.659C160.066 203.898 160.631 204.176 161.202 204.435C162.182 204.882 163.987 205.717 164.743 205.499L164.627 206.766C163.931 206.328 163.287 205.905 162.796 205.543C162.5 205.323 162.635 205.3 162.382 205.121C162.102 204.921 161.913 204.858 161.781 204.762C160.819 204.181 159.041 202.186 158.734 201.103C158.658 200.908 158.67 200.74 158.623 200.627C158.599 200.568 158.498 200.457 158.426 200.275C158.048 199.316 157.858 198.486 157.706 197.629L157.486 196.516L158.572 196.9C159.092 197.095 159.583 197.274 160.059 197.248C160.382 197.233 160.736 197.12 161.109 196.947L160.987 198.002C158.765 196.408 156.452 193.646 156.175 190.686C156.063 189.962 156.171 189.447 156.158 189.351C156.134 189.13 156.02 188.999 155.966 188.549C155.933 188.276 155.91 187.985 155.895 187.678L155.849 186.754L156.743 187.053C157.282 187.242 157.706 187.514 158.121 187.744C158.326 187.859 158.527 187.967 158.697 188.037C158.863 188.125 159.018 188.062 158.818 188.139L158.844 189.199C158.489 188.993 158.158 188.78 157.862 188.576C157.252 188.171 156.421 187.546 155.944 186.977C155.535 186.542 154.876 185.328 154.728 185.118C154.629 184.996 154.499 184.978 154.406 184.811ZM160.321 195.718C160.132 195.786 160.954 196.33 160.743 196.017C160.695 195.948 160.369 195.704 160.321 195.718ZM151.525 210.221C151.573 210.234 151.622 210.248 151.671 210.261C151.717 210.123 151.759 209.984 151.796 209.845C151.737 209.907 151.678 209.968 151.617 210.027C151.587 210.092 151.556 210.157 151.525 210.221Z" fill="white"/>
</svg>