<svg width="146" height="100" viewBox="0 0 146 100" fill="none" xmlns="http://www.w3.org/2000/svg">
<path d="M31.405 77.7834L30.5082 65.396L16.7763 66.4044L29.1515 77.9621L31.405 77.7834Z" fill="#FFE287"/>
<path d="M42.0001 61.2727L29.3541 49.4545L30.5082 65.396L42.0901 64.5454L42.0451 62.9091L42.0001 61.2727Z" fill="#FFE287"/>
<path d="M31.405 77.7834L42.4302 76.9091L42.0901 64.5454L30.5082 65.396L31.405 77.7834Z" fill="#F5C113"/>
<path d="M39.5069 42.2536L28.0641 31.6364L29.3541 49.4545L42.0001 61.2727L42.0059 61.2781L41.5952 44.1912L39.5069 42.2536Z" fill="#F4851F"/>
<path d="M50.9497 52.8155V52.8707V69.6364L62.476 63.4545L50.9497 52.8155Z" fill="#F4851F"/>
<path d="M0 67.6364L12.6239 79.2727L29.1515 77.9621L16.7763 66.4044L0 67.6364Z" fill="#F58420"/>
<path d="M41.5952 44.1912L42.0059 61.2781L50.9497 69.6364V52.8707L41.5952 44.1912Z" fill="#FBB140"/>
<path d="M34.913 99.8182L42.4302 90.3636L29.1515 77.9621L12.6239 79.2727L34.913 99.8182Z" fill="#FBB140"/>
<path d="M62.476 30.2012L50.9497 17.2727V52.8155L62.476 63.4545V30.2012Z" fill="#84A5D5"/>
<path d="M83.8581 63.4545L94.8322 53.3746L94.8659 18.2007L83.8581 30.0001V30.1818V46.8182V63.4545Z" fill="#84A5D5"/>
<path d="M62.476 12.6412L50.9497 0V16.5455V17.2727L62.476 30.2012V30.1818V12.6412Z" fill="#467FC1"/>
<path d="M86.8279 8.76768L83.8581 12V29.4091V30.0001L94.8659 18.2007L94.8676 16.3636L94.8833 0L86.8279 8.76768Z" fill="#467FC1"/>
<path d="M81.081 32.977L72.8559 23.975L72.833 24L64.7775 32.7677L72.833 41.8182L81.081 32.977Z" fill="#61C5BC"/>
<path d="M83.8581 29.4091V12L72.8559 23.975L81.081 32.977L83.8581 30.0001V29.4091Z" fill="#A2D9DC"/>
<path d="M62.476 30.1818L64.7775 32.7677L72.833 24L62.476 12.6412V30.1818Z" fill="#A3DADB"/>
<path d="M94.8322 53.3746L83.8581 63.4545L94.8833 69.6364L94.8785 53.3321L94.8322 53.3746Z" fill="#87C442"/>
<path d="M104.178 61.3549L116.918 50.0037L118.103 32L105.24 43.8146L104.178 61.3549Z" fill="#87C340"/>
<path d="M111.588 100L134.269 78.9091L125.947 78.3728L117.626 77.8365L104.071 90.5454L111.588 100Z" fill="#C7DC6A"/>
<path d="M104.178 61.3549L105.24 43.8146L94.8785 53.3321L94.8833 69.6364L104.178 61.3549Z" fill="#C7DC6A"/>
<path d="M103.996 64.3636L115.904 65.3946L116.918 50.0037L104.178 61.3549L103.996 64.3636Z" fill="#F8A98E"/>
<path d="M134.269 78.9091L146 68L129.629 66.5828L117.626 77.8365L125.947 78.3728L134.269 78.9091Z" fill="#87C440"/>
<path d="M103.996 64.3636L103.236 76.9091L107.734 77.199L114.929 77.6627L115.904 65.3946L103.996 64.3636Z" fill="#ED3744"/>
<path d="M129.629 66.5828L115.931 65.3969L115.904 65.3946L114.929 77.6627L117.626 77.8365L129.629 66.5828Z" fill="#F8A98E"/>
</svg>
